<?xml version="1.0" encoding="UTF-8" standalone="no"?>
<svg
   viewBox="0 0 512 512"
   version="1.1"
   id="svg76"
   xmlns="http://www.w3.org/2000/svg"
   xmlns:svg="http://www.w3.org/2000/svg"
   xmlns:rdf="http://www.w3.org/1999/02/22-rdf-syntax-ns#"
   xmlns:cc="http://creativecommons.org/ns#"
   xmlns:dc="http://purl.org/dc/elements/1.1/">
  <defs
     id="defs4">
    <style
       id="style2">
         .skinPrimary {
            fill: #fcca92;
         }

         .skinShadowed {
            fill: #daa25d;
         }





         .leftInnerEar {
            fill: #bc9267;
         }
      </style>
  </defs>
  <title
     id="title6">Avatar Users2</title>
  <metadata
     id="metadata913">
    <rdf:RDF>
      <cc:Work
         rdf:about="">
        <dc:title>Avatar Users2</dc:title>
      </cc:Work>
    </rdf:RDF>
  </metadata>
  <path
     class="cls-11"
     d="m 176.10197,519.85082 c -0.30433,-0.1046 -0.60864,-0.1997 -0.95099,-0.31382 -7.19583,-2.45355 -11.96265,4.98368 -18.84147,1.87711 -11.94298,8.95277 -26.46136,5.99322 -34.98998,0.79777 -1.12216,-0.67521 2.3157,3.74875 2.91543,-2.05412 l -17.41219,-1.17627 c 4.35493,-13.46846 28.17741,-36.51408 33.00843,-40.86962 4.89636,-4.51586 10.07033,-8.7211 15.49163,-12.5911 l 2.42503,6.37163 9.7952,25.50555 z"
     id="path3977"
     style="fill:#9bb75e;stroke-width:0.95099" />
  <path
     class="cls-11"
     d="m 394.95994,506.63337 9.89098,11.36503 -16.87606,3.2215 -5.8819,2.53975 c -8.9804,9.36733 1.88713,8.52689 -3.68749,1.99114 -8.02996,4.88669 -7.82567,-3.75806 -16.373,0.15383 -2.21265,1.00805 0.67703,25.82475 -8.92744,9.17294 -3.72789,1.57865 -9.21254,-3.18488 -15.88633,-17.12872 -1.3504,0.50404 -2.71984,0.951 -4.08926,1.45502 l 6.73301,-17.65988 v 0 l 5.19241,-13.59917 5.94369,-15.58672 0.78932,-2.06365 v 0 l 1.90197,-4.96417 c 5.4213,3.87 10.59527,8.07524 15.49163,12.59111 4.70741,4.26044 17.03468,15.28127 25.77847,28.51199 z"
     id="path3979"
     style="fill:#9bb75e;stroke-width:0.95099" />
  <path
     class="cls-8"
     d="m 347.76518,488.16384 -5.77251,16.28094 -4.75495,13.53261 c -1.35041,0.50401 -2.71983,0.95098 -4.08926,1.455 a 238.28007,238.28007 0 0 1 -30.43169,8.27362 242.33128,242.33128 0 0 1 -36.39438,4.57426 h -0.35186 q -2.85298,0.14264 -5.82006,0.20921 v 0 q -3.02416,0.0665 -6.0578,0.076 -3.47113,0 -6.90421,-0.095 v 0 c -1.76883,0 -3.53768,-0.12363 -5.30652,-0.20923 h -0.53254 a 242.12207,242.12207 0 0 1 -34.90134,-4.327 239.1645,239.1645 0 0 1 -30.33659,-8.08342 c -0.3043,-0.1046 -0.60864,-0.1997 -0.95099,-0.31382 l -7.60791,-22.12955 -3.20484,-9.24361 z"
     id="path3981"
     style="fill:#ffffff;stroke-width:0.95099" />
  <path
     class="cls-12"
     d="m 197.50875,488.16384 8.93931,39.7704 c -10.27832,-2.02714 -20.41235,-4.72743 -30.33659,-8.08342 -0.3043,-0.1046 -0.60864,-0.1997 -0.95099,-0.31382 -7.19583,-2.45355 -13.0979,-1.82785 -19.97673,-4.93442 l -13.25086,-31.18418 -1.30286,-2.96709 c -0.32863,-0.7525 -0.58033,-1.5363 -0.75127,-2.33944 -1.1066,-5.00668 0.96009,-10.18095 5.21142,-13.04759 9.63486,-6.55974 20.52972,-11.04205 31.9913,-13.16169 5.16814,-0.90725 10.35576,1.49316 13.00955,6.01976 0.6653,1.1061 1.14402,2.31415 1.41697,3.57573 z"
     id="path3983"
     style="fill:#b0d46c;stroke-width:0.95099" />
  <path
     class="cls-12"
     d="m 369.16245,478.11187 c -0.17094,0.80314 -0.42265,1.58694 -0.75128,2.33944 l -0.66569,1.52158 v 0 l -1.02708,2.34895 -14.89372,31.95212 c -2.21263,1.00806 -1.02584,-3.69187 -3.25117,-2.74722 -3.72787,1.57865 -7.50964,3.05902 -11.34531,4.44112 -1.3504,0.50403 -2.71983,0.95099 -4.08925,1.45502 -9.95006,3.42685 -20.11621,6.19077 -30.43168,8.27361 l 8.88224,-39.54216 2.54866,-11.32629 v 0 l 3.4521,-15.34899 c 0.38687,-1.75763 1.15281,-3.40961 2.24433,-4.84053 l 0.55157,-0.67521 c 2.8952,-3.27828 7.28236,-4.82223 11.59258,-4.07973 11.45405,2.12598 22.33957,6.61492 31.96276,13.1807 4.24629,2.87107 6.31453,8.03979 5.22094,13.04759 z"
     id="path3985"
     style="fill:#b0d46c;stroke-width:0.95099" />
</svg>
