<?xml version="1.0" encoding="UTF-8" standalone="no"?>
<svg
   viewBox="0 0 512 512"
   version="1.1"
   id="svg76"
   xmlns="http://www.w3.org/2000/svg"
   xmlns:svg="http://www.w3.org/2000/svg"
   xmlns:rdf="http://www.w3.org/1999/02/22-rdf-syntax-ns#"
   xmlns:cc="http://creativecommons.org/ns#"
   xmlns:dc="http://purl.org/dc/elements/1.1/">
  <defs
     id="defs4">
    <style
       id="style2">
         .skinPrimary {
            fill: #fcca92;
         }

         .skinShadowed {
            fill: #daa25d;
         }





         .leftInnerEar {
            fill: #bc9267;
         }
      </style>
  </defs>
  <title
     id="title6">Avatar Users2</title>
  <metadata
     id="metadata913">
    <rdf:RDF>
      <cc:Work
         rdf:about="">
        <dc:title>Avatar Users2</dc:title>
      </cc:Work>
    </rdf:RDF>
  </metadata>
  <path
     class="cls-3"
     d="m 380.2139,540.37283 c -26.66525,16.42327 -39.05394,-37.95992 -69.80141,-32.01415 -1.80091,0.35609 -3.60182,0.68168 -5.4129,1.01746 -1.99423,0.33915 -3.99524,0.65456 -6.00301,0.94622 -1.22097,0.18316 -2.43174,0.35612 -3.6527,0.51892 -8.39068,1.11243 -16.90345,1.81787 -25.5383,2.11633 -2.99134,0.10173 -5.99286,0.1526 -9.00455,0.1526 -3.45936,0 -6.90516,-0.0678 -10.3374,-0.20351 -8.22109,-0.31201 -16.33705,-1.00726 -24.34788,-2.08576 l -2.89975,-0.39683 c -2.54366,-0.36629 -5.07036,-0.77328 -7.5801,-1.22095 -1.23113,-0.2035 -2.45209,-0.42732 -3.67304,-0.67152 -184.327115,232.17015 -127.356428,23.17206 -82.88244,-52.37895 0.69186,-0.54944 1.37355,-1.09885 2.0349,-1.6483 l 2.10616,-1.61776 1.44479,-1.07851 1.01748,-0.71222 1.3939,-1.01746 0.78345,-0.54943 c 0.641,-0.45786 1.30235,-0.90555 1.9637,-1.35322 2.27233,-1.5601 4.6091,-3.07274 7.01031,-4.53791 0.75293,-0.46802 1.51603,-0.92587 2.27913,-1.37356 0.76307,-0.44767 1.61776,-0.94623 2.43174,-1.41426 l 1.31254,-0.74275 1.33283,-0.75292 c 0.42735,-0.23401 0.85469,-0.46804 1.29219,-0.69186 l 2.23841,-1.20063 1.50586,-0.77326 1.01746,-0.49855 v 0 c 1.29217,-0.65119 2.59452,-1.29218 3.91722,-1.92302 l 0.61048,-0.27471 0.67153,-0.2747 v 0 c 0.12216,-0.0587 0.2479,-0.10973 0.37647,-0.15265 0.37644,-0.14243 0.75291,-0.30522 1.1599,-0.44767 0.40698,-0.14243 0.6817,-0.25437 1.01746,-0.36627 l 1.41429,-0.46804 1.84158,-0.59013 2.2384,-0.67152 c 2.16722,-0.63085 4.51756,-1.30234 6.98999,-2.03493 l 1.2006,-0.32558 c 3.86637,-1.07851 7.95656,-2.21808 11.93483,-3.4085 v 0 l 19.1588,19.10793 27.72586,27.63428 13.08457,-4.53786 0.38662,-0.1323 2.29947,-2.44191 4.06984,-4.37509 0.23403,-0.24418 0.26452,-0.28489 h 0.49856 l 9.15717,12.01623 5.21957,-2.33 30.52386,-13.58311 10.17464,-4.51754 20.73588,-13.87817 2.36048,-1.57708 5.38239,-3.61197 c 0.15261,0.0711 0.32559,0.14243 0.46804,0.2238 3.92739,1.90606 7.7293,3.88673 11.40574,5.94202 l 0.73258,0.42731 c 0.72241,0.39682 1.44479,0.81397 2.1672,1.24131 1.42442,0.83432 2.8387,1.67881 4.22248,2.55384 l 1.83141,1.14972 c 0.9666,0.61046 1.91282,1.23113 2.85907,1.86197 l 2.84891,1.923 c 0.80379,0.5596 1.60758,1.10903 2.39102,1.66864 v 0 c 0.84449,0.61048 1.68898,1.22095 2.51313,1.84159 2.50974,1.85178 4.94147,3.75444 7.2952,5.70798 l 4.60052,4.79165 4.54102,4.54102 7.37757,11.11697 6.76928,25.30764 -1.37085,83.67155 -3.58677,-13.8244 c -19.70794,87.68591 -38.15114,42.66789 7.87027,9.58331 0.79209,-0.57465 -2.61,-35.48151 -1.93847,-34.76929 -28.03109,36.59982 -17.39673,92.52866 -27.67773,-7.08351 z"
     id="path549"
     style="fill:#27273d;stroke-width:1.01746" />
  <path
     class="cls-8"
     d="m 260.89261,459.96818 -0.23401,0.3154 -0.25437,0.34594 -0.77327,1.01746 -3.23553,4.34456 -23.65598,31.69395 -7.30538,9.77781 -1.78058,2.39103 a 5.9928516,5.9928516 0 0 1 -0.44766,0.53927 q -3.81551,-0.54945 -7.5801,-1.22096 c -1.23114,-0.20348 -2.45208,-0.42734 -3.67305,-0.67154 a 1.7602093,1.7602093 0 0 1 -0.14245,-0.3154 l -30.12704,-79.54518 -0.84448,-2.22825 a 6.2268678,6.2268678 0 0 1 3.14395,-7.83446 l 21.58037,-10.28654 0.88519,-0.41716 a 6.2370424,6.2370424 0 0 1 7.12223,1.21077 c 1.25148,1.25149 2.80819,2.83875 4.57858,4.68035 14.275,14.92617 42.74358,46.20295 42.74358,46.20295 z"
     id="path551"
     style="fill:#ffffff;stroke-width:1.01746" />
  <path
     class="cls-8"
     d="m 341.44507,426.42244 -1.43461,3.78496 -2.82853,7.46818 -26.70837,70.52029 a 0.78344581,0.78344581 0 0 1 -0.0711,0.16281 c -1.8009,0.35609 -3.60182,0.68168 -5.4129,1.01746 q -2.99133,0.50873 -6.00303,0.94622 a 5.0873103,5.0873103 0 0 1 -0.35611,-0.43749 l -2.45209,-3.28642 -6.817,-9.15716 -18.94513,-25.37549 -9.02489,-12.09762 c 0,0 29.89303,-32.84368 43.81191,-47.26112 1.35324,-1.3939 2.54367,-2.61488 3.55095,-3.61197 a 6.2370424,6.2370424 0 0 1 7.12225,-1.21078 h 0.1119 l 22.38417,10.65282 a 6.2268678,6.2268678 0 0 1 3.07273,7.88531 z"
     id="path553"
     style="fill:#ffffff;stroke-width:1.01746" />
  <path
     class="cls-8"
     d="m 309.35434,492.20137 14.36678,79.02579 c -93.31353,35.97449 2.10808,-7.78572 -62.48273,-27.68891 -8.2211,-0.31201 -22.58096,1.26324 -30.59179,0.18472 l -9.71128,-3.80256 c -2.54367,-0.3663 -2.79986,-30.28992 -5.30959,-30.7376 l -1.09887,-4.23265 8.72982,-8.3737 30.34074,-29.11974 2.68608,-2.57421 3.34746,-3.21517 0.77327,-0.74275 0.42734,-0.41717 0.5596,-0.52907 14.41745,9.68623 24.46995,16.45235 z"
     id="path567"
     style="fill:#ffffff;stroke-width:1.01746" />
  <path
     class="cls-9"
     d="m 290.62284,496.44418 -1.26165,1.01746 -19.58613,15.37387 v 0.1221 q -4.48701,0.1526 -9.00455,0.1526 -5.18905,0 -10.3374,-0.20351 l 0.0915,-1.21076 -17.80559,-13.97993 -1.58722,-1.25147 25.24323,-30.44248 4.0088,-4.8431 v -1.19045 l 0.23403,0.2849 v 0 l 0.17296,0.21367 0.061,0.0711 0.49856,-0.6003 v 1.24131 l 9.03507,10.90719 z"
     id="path569"
     style="fill:#db1b1b;stroke-width:1.01746" />
  <path
     class="cls-10"
     d="m 236.32287,553.94027 5.61467,4.14422 c -2.54367,-0.3663 -7.90851,-6.44957 -10.41824,-6.89725 -1.23114,-0.2035 -20.61616,-4.96835 -21.83713,-5.21254 -20.1026,-3.8061 -40.81591,-25.88527 -59.45618,-34.31981 -1.66862,-16.10642 2.05256,-58.12725 9.93786,-75.49532 v 0 c 6.6237,-14.63111 18.61958,-27.08484 39.32492,-32.93526 2.56257,-0.75052 5.21857,0.85248 5.74868,3.46954 l 0.32558,1.61775 2.41137,12.03661 4.81261,24.01209 10.46967,52.21616 20.9091,56.88502 z"
     id="path571"
     style="fill:#32314b;stroke-width:1.01746" />
  <path
     class="cls-10"
     d="m 367.8177,490.13593 c -18.35966,8.29952 -30.8184,49.60851 -50.60387,53.41565 -1.8009,0.35609 -4.73706,25.65729 -10.52154,-4.09118 -1.99422,0.33915 7.92496,59.68782 -4.86774,12.29877 3.32006,41.61996 -0.16124,-1.34677 -1.38219,-1.18397 l -6.53468,-7.64859 6.34036,-56.79949 6.05389,-30.01511 7.30539,-36.43532 2.34017,-11.70083 0.25438,-1.25148 c 0.53527,-2.61832 3.19391,-4.22007 5.75882,-3.46954 23.80862,6.73559 36.10972,22.20103 41.96012,39.68101 5.30098,15.71979 5.35186,33.11841 3.89689,47.20008 z"
     id="path573"
     style="fill:#32314b;stroke-width:1.01746" />
</svg>
