<?xml version="1.0" encoding="UTF-8" standalone="no"?>
<svg
   viewBox="0 0 512 512"
   version="1.1"
   id="svg76"
   xmlns="http://www.w3.org/2000/svg"
   xmlns:svg="http://www.w3.org/2000/svg"
   xmlns:rdf="http://www.w3.org/1999/02/22-rdf-syntax-ns#"
   xmlns:cc="http://creativecommons.org/ns#"
   xmlns:dc="http://purl.org/dc/elements/1.1/">
  <defs
     id="defs4">
    <style
       id="style2">
         .skinPrimary {
            fill: #fcca92;
         }

         .skinShadowed {
            fill: #daa25d;
         }





         .leftInnerEar {
            fill: #bc9267;
         }
      </style>
  </defs>
  <title
     id="title6">Avatar Users2</title>
  <metadata
     id="metadata913">
    <rdf:RDF>
      <cc:Work
         rdf:about="">
        <dc:title>Avatar Users2</dc:title>
      </cc:Work>
    </rdf:RDF>
  </metadata>
  <path
     class="cls-12"
     d="m 144.64151,536.51496 c -1.97941,-0.98971 -3.85985,-1.97941 -5.76007,-2.96911 -3.21653,-1.69239 -6.37368,-3.46395 -9.50115,-5.29491 -2.38518,-1.39548 -4.74067,-2.82066 -7.06648,-4.29532 -3.52995,-2.22353 -7.00381,-4.53284 -10.42158,-6.92791 l -1.54393,-1.09857 -0.44536,-0.31672 -4.09566,-0.10536 c 5.55174,-8.31067 16.46906,-16.60746 23.57301,-23.63761 1.15795,-1.16785 2.3456,-2.29612 3.56294,-3.42438 l 5.93821,24.41599 z"
     id="path3323"
     style="fill:#3586cb;stroke-width:0.989703" />
  <path
     class="cls-12"
     d="m 406.07044,519.61432 c -0.79175,0.55424 -7.83732,0.52105 -8.63897,1.05549 -2.42148,1.60332 -4.87265,3.17035 -7.3535,4.70109 -1.22724,0.75218 -2.45448,1.49444 -3.69159,2.22683 -3.0186,1.79137 -6.08669,3.53324 -9.19434,5.19594 -4.61862,2.47425 -9.29662,4.80666 -14.03401,6.99721 l 12.26243,-50.42538 c 0.59383,0.55423 1.17775,1.11837 1.76167,1.6924 v 0 c 3.24624,3.14724 6.30441,6.38358 9.19435,9.74857 4.9298,5.73786 15.66948,12.40242 19.69396,18.80785 z"
     id="path3325"
     style="fill:#3586cb;stroke-width:0.989703" />
  <path
     class="cls-10"
     d="m 386.33689,500.81636 v 26.78137 c -3.01858,1.79137 -6.08667,3.53324 -9.19433,5.19594 q -6.92793,3.71138 -14.03401,6.99721 -10.6393,4.89901 -21.77345,8.81825 c -1.14805,0.40577 -2.28622,0.80166 -3.44418,1.18764 q -2.72168,0.92042 -5.47306,1.76167 -7.91761,2.44456 -16.03317,4.39429 a 250.02866,250.02866 0 0 1 -25.85106,4.77036 256.59041,256.59041 0 0 1 -66.40907,0 252.21591,252.21591 0 0 1 -26.84074,-5.00789 q -9.89703,-2.40499 -19.47736,-5.58193 l -0.9897,-0.3365 c -0.73237,-0.23754 -1.46475,-0.48496 -2.19714,-0.75217 A 253.60151,253.60151 0 0 1 144.7009,536.51496 c -1.97941,-0.98971 -3.85985,-1.97941 -5.76008,-2.96911 -3.21654,-1.69239 -6.37369,-3.46395 -9.50114,-5.29491 v -36.40129 c 1.15794,-1.16784 2.34558,-2.2961 3.56293,-3.42435 1.91013,-1.76168 3.89943,-3.49366 5.93821,-5.16627 a 155.82874,155.82874 0 0 1 32.66021,-20.65509 27.59292,27.59292 0 0 1 2.90972,-1.16786 c 0.28702,-0.099 0.59382,-0.19794 0.90062,-0.3167 a 78.829847,78.829847 0 0 0 20.6947,21.59532 105.02728,105.02728 0 0 0 123.55453,0 80.324298,80.324298 0 0 0 19.04189,-19.08148 v 0 c 1.97939,1.03919 3.9588,2.09816 5.87883,3.19674 0.80166,0.44538 1.59343,0.90064 2.38519,1.37569 q 2.31589,1.33609 4.53284,2.75137 1.21734,0.75218 2.40497,1.54395 c 0.79176,0.50475 1.58353,0.98969 2.3654,1.57362 0.78187,0.58392 1.54393,1.05899 2.30599,1.59343 2.34561,1.64288 4.60213,3.3353 6.79927,5.05737 q 1.6924,1.3361 3.32541,2.69199 l 0.73239,0.62352 c 0.46514,0.38599 0.91051,0.77196 1.35588,1.16785 1.58352,1.36579 3.11756,2.74147 4.62192,4.16664 0.59381,0.55425 1.17774,1.11839 1.76166,1.69239 v 0 c 3.21653,3.14725 6.27472,6.38358 9.16465,9.74858 z"
     id="path3327"
     style="fill:#ffffff;stroke-width:0.989703" />
</svg>
