<?xml version="1.0" encoding="UTF-8" standalone="no"?>
<svg
   viewBox="0 0 512 512"
   version="1.1"
   id="svg76"
   xmlns="http://www.w3.org/2000/svg"
   xmlns:svg="http://www.w3.org/2000/svg"
   xmlns:rdf="http://www.w3.org/1999/02/22-rdf-syntax-ns#"
   xmlns:cc="http://creativecommons.org/ns#"
   xmlns:dc="http://purl.org/dc/elements/1.1/">
  <defs
     id="defs4">
    <style
       id="style2">
         .skinPrimary {
            fill: #fcca92;
         }

         .skinShadowed {
            fill: #daa25d;
         }





         .leftInnerEar {
            fill: #bc9267;
         }
      </style>
  </defs>
  <title
     id="title6">Avatar Users2</title>
  <metadata
     id="metadata913">
    <rdf:RDF>
      <cc:Work
         rdf:about="">
        <dc:title>Avatar Users2</dc:title>
      </cc:Work>
    </rdf:RDF>
  </metadata>
  <path
     class="cls-11"
     d="m 406.76223,524.53849 c -11.88253,4.27786 -18.80491,10.59851 -22.79254,4.82904 -6.39637,4.93924 -4.53641,-10.33205 -11.42077,-6.0994 l -6.82736,2.74126 c -85.20728,1.89579 -135.17234,0.14305 -211.01551,-2.85014 -4.17742,-2.16031 -13.9595,2.35961 -17.99369,-0.0633 l -8.3317,2.60541 c -1.41434,-0.84145 -12.4694,1.13733 -13.86584,0.26008 -2.71534,-1.71274 -11.64473,1.62648 -17.706122,-4.74066 -1.17264,-0.8146 -17.662313,-6.17023 -18.817053,-7.01168 25.874535,-25.86493 50.092325,-44.10667 57.156915,-47.24172 l 19.36228,-8.59355 15.91595,-7.07176 c 6.13199,-2.73932 13.2942,-1.69323 18.38656,2.68548 1.01151,0.89516 2.12152,1.79032 3.32997,2.68547 0.89518,0.71614 1.9246,1.44121 2.97194,2.17525 0.69824,0.49233 1.43225,0.98468 2.1842,1.46806 l 1.15474,0.73403 1.19058,0.73403 1.23528,0.72508 1.27115,0.71613 c 2.75019,1.51884 5.5867,2.87582 8.49507,4.06401 0.51919,0.21485 1.03838,0.42074 1.56652,0.61765 1.57547,0.59677 3.21361,1.16669 4.91442,1.70975 l 1.66499,0.5013 0.188,0.0536 c 0.53708,0.15214 1.0742,0.30433 1.62918,0.44758 1.19954,0.32224 2.42587,0.61765 3.68806,0.89516 1.26218,0.27747 2.43484,0.49232 3.68805,0.69821 h 0.0985 c 0.63557,0.10743 1.28903,0.20589 1.94249,0.2954 0.65347,0.0896 1.03838,0.15217 1.56654,0.2059 0.52813,0.0536 0.79667,0.1074 1.19949,0.1432 0.15219,0 0.31334,0 0.4655,0.0537 l 1.56654,0.15219 c 0.34908,0 0.69821,0.0626 1.05628,0.0806 0.35805,0.0178 0.79668,0.0626 1.1995,0.0806 0.40281,0.0178 0.59082,0.0446 0.89516,0.0536 0.66241,0.0358 1.33378,0.0627 2.01411,0.0806 h 0.23275 2.44378 1.79032 c 8.68305,-0.16112 17.33923,-0.16112 26.02228,0 h 1.79031 2.46168 c 0.81459,0 1.46805,-0.0446 2.18421,-0.0895 h 0.4207 l 1.54863,-0.0985 1.19057,-0.0984 c 1.26217,-0.10742 2.49749,-0.24171 3.71492,-0.40285 l 1.44119,-0.19693 0.60871,-0.0985 c 0.35806,-0.0446 0.71612,-0.10743 1.06526,-0.17008 0.34909,-0.0627 0.63556,-0.10742 0.94887,-0.16115 l 1.04733,-0.19693 0.73402,-0.14321 1.17267,-0.25066 c 1.17264,-0.25064 2.31845,-0.52814 3.4374,-0.82353 0.50129,-0.12532 0.99362,-0.2596 1.47701,-0.40283 l 1.4412,-0.42072 c 1.84404,-0.55501 3.58066,-1.16371 5.30831,-1.79031 0.52815,-0.19694 1.03836,-0.40284 1.54862,-0.60871 l 1.3875,-0.5729 c 1.57547,-0.66839 3.08232,-1.36661 4.52055,-2.09467 0.34016,-0.17008 0.68034,-0.34018 1.01153,-0.51923 0.33121,-0.17902 0.74299,-0.38488 1.11,-0.58181 0.367,-0.19695 0.97573,-0.52817 1.45015,-0.79672 0.47445,-0.26853 1.13686,-0.65346 1.6829,-0.98467 0.36704,-0.21485 0.71612,-0.42967 1.06524,-0.65347 0.34913,-0.2238 0.89515,-0.54606 1.30692,-0.82354 0.41178,-0.2775 0.84146,-0.53709 1.24429,-0.82354 0.40283,-0.28646 0.70716,-0.47443 1.04735,-0.71613 v 0 l 0.14321,-0.10742 c 0.39388,-0.26854 0.76983,-0.53709 1.14579,-0.81458 l 1.08314,-0.80566 0.19694,-0.15219 c 0.64451,-0.48337 1.26219,-0.97572 1.84405,-1.45014 l 0.9399,-0.7788 0.89515,-0.76086 c 5.09331,-4.37663 12.25425,-5.42253 18.38656,-2.68548 l 14.50162,6.43616 21.94769,14.35566 c 3.82586,1.70893 31.9341,20.71502 40.02211,47.35381 z"
     id="path1380"
     style="fill:#ffffff;stroke-width:0.89516" />
  <path
     class="cls-3"
     d="M 358.97415,457.73826 C 257.04237,529.78068 180.1124,479.95613 154.5198,458.37383 l 15.91594,-7.07176 a 17.348188,17.348188 0 0 1 18.38655,2.68548 c 9.44395,8.16385 27.94687,19.96207 55.62519,19.44287 8.68306,-0.16115 17.33924,-0.16115 26.02228,0 27.67832,0.5192 46.18125,-11.27902 55.61625,-19.44287 a 17.357138,17.357138 0 0 1 18.38656,-2.68548 z"
     id="path1382"
     style="fill:#f55b4b;stroke-width:0.89516" />
</svg>
