<?xml version="1.0" encoding="UTF-8" standalone="no"?>
<svg viewBox="0 0 512 512" version="1.1" id="svg76" xmlns="http://www.w3.org/2000/svg"
   xmlns:svg="http://www.w3.org/2000/svg" xmlns:rdf="http://www.w3.org/1999/02/22-rdf-syntax-ns#"
   xmlns:cc="http://creativecommons.org/ns#" xmlns:dc="http://purl.org/dc/elements/1.1/">
   <defs id="defs4">
      <style id="style2">
         .skinPrimary {
            fill: #fcca92;
         }

         .skinShadowed {
            fill: #daa25d;
         }





         .leftInnerEar {
            fill: #bc9267;
         }

         .hairLightShade {
            fill: #ee05da;
         }

         .hairDarkShade {
            fill: #450143;
         }

         .hairMediumShade {
            fill: #71017b;
         }
      </style>
   </defs>
   <title id="title6">Avatar Users2</title>
   <g id="Icons">
      <path class="cls-6"
         d="m 456.00744,376.78917 c -2.06693,17.28301 -7.24353,36.58682 -16.90467,57.89301 0,0 -0.79133,5.43464 -14.72733,28.63117 -13.03245,22.42605 -27.24905,54.34189 -40.80218,63.47621 -2.63903,1.77782 3.74273,-0.61549 1.03601,1.05161 6.89163,28.30088 -0.21032,2.28301 -0.72704,2.56906 -5.91098,-6.82511 -0.69828,-32.1145 -17.25725,-51.95655 -4.32627,-6.44898 -9.85995,-15.65122 -13.28211,-22.62221 -12.68773,-25.91989 -18.45489,-56.1121 -6.57917,-87.86374 3.64234,-9.64748 6.59034,-19.54298 8.82146,-29.61088 1.76584,-8.0517 2.99884,-16.21109 3.69097,-24.42504 0.30449,-3.74636 0.59055,-7.56652 0.83969,-11.34975 0.1661,-2.57447 0.32295,-5.13047 0.44292,-7.62189 0,-0.29527 0,-0.58131 0.046,-0.85815 0.17532,-3.69098 0.29528,-7.20663 0.34142,-10.4916 0.10149,-7.51115 -0.19379,-13.69354 -1.13497,-17.11692 l 1.43947,-1.58712 0.53518,-0.59056 -0.7105,-0.0644 -8.72916,-0.75663 -28.439,-2.49144 -19.0639,-1.7163 -50.23422,-4.3738 3.97704,16.36948 0.83968,3.44185 c -13.02473,0.59072 -26.07131,0.50757 -39.08746,-0.24914 -4.39227,-0.27682 -8.61844,-0.62132 -12.67853,-1.03348 -4.73367,-0.4706 -9.22744,-1.04271 -13.54589,-1.67939 -1.50406,-0.22147 -2.97123,-0.45215 -4.41993,-0.69207 -11.62075,-1.86476 -23.07666,-4.64158 -34.26151,-8.30469 -1.67017,-0.55366 -3.26652,-1.11653 -4.78905,-1.67018 l 4.09698,4.52145 0.78434,0.86737 c -1.37489,5.02897 -1.36566,16.04654 -0.73819,28.46669 v 0.61824 c 0.11996,2.34377 0.25837,4.74291 0.41522,7.16048 0.24915,3.69099 0.52597,7.50194 0.83047,11.1929 0.50444,6.10242 1.31648,12.15256 2.43607,18.1504 2.29038,12.22341 5.65925,24.21986 10.06713,35.84864 11.3313,30.23832 6.61608,59.05567 -4.81673,84.13584 -3.78387,8.22528 -8.22109,16.13393 -13.26906,23.64996 -4.76474,7.12567 -9.94733,13.96288 -15.52057,20.4757 -0.54441,-0.32297 -11.78057,37.20981 -12.31577,36.86839 -3.69098,-2.32533 -4.84175,15.00041 -8.39125,12.46593 -13.57087,-9.6378 5.19462,-9.98192 -6.05445,-22.25032 20.7074,8.60902 -2.04174,-40.99123 -31.98963,-88.62194 -8.922912,-19.67294 -14.016462,-37.648 -16.378688,-53.89754 -10.759204,-74.4009 35.830176,-112.63944 35.830176,-112.63944 5.091342,-3.74895 9.702702,-8.10928 13.730422,-12.98304 4.40056,-5.21061 7.67152,-11.27803 9.60579,-17.81819 -1.05192,-1.93777 -1.99312,-3.84785 -2.84205,-5.72102 v 0 c -20.420342,-45.15912 14.76391,-73.43203 14.76391,-73.43203 17.13537,-73.948758 84.04358,-62.682045 84.96634,-62.515945 0.0366,0.005 0.0739,0.005 0.11073,0 4.61372,-2.06695 164.24855,-72.324736 174.21421,89.626195 0,0 12.67849,23.71454 10.86068,46.13724 -0.27454,4.05126 -1.1099,8.04483 -2.48217,11.86649 2.01348,4.40109 4.61134,8.51051 7.72338,12.21714 3.95816,4.72919 8.46868,8.96713 13.43515,12.62316 0,0 44.90999,36.90977 36.29154,108.68086 z"
         id="path2817" style="fill:#32314b;stroke-width:0.922744" />
      <rect class="cls-7" x="210.35446" y="138.33762" width="59.083344" height="24.305098" rx="12.152551"
         transform="rotate(30.93)" id="rect2819" style="fill:#fc4581;stroke-width:0.922744" />
      <rect class="cls-7" x="-232.4332" y="-427.98636" width="59.083344" height="24.305098" rx="12.152551"
         transform="rotate(149.07)" id="rect2821" style="fill:#fc4581;stroke-width:0.922744" />
      <path class="skinPrimary"
         d="m 393.15674,516.24439 c -93.93886,9.3324 -176.31966,12.33721 -277.42103,-1.8056 0.4514,-0.66134 0.9133,-1.3122 1.37518,-1.96306 1.04977,-1.37518 2.02605,-2.76087 3.07581,-4.11507 0.52488,-0.67185 1.04977,-1.3332 1.58514,-2.01555 1.51166,-1.90006 3.09681,-3.75815 4.72394,-5.59524 l 0.50389,-0.57737 1.52216,-1.65862 1.7846,-1.88957 c 0.59836,-0.61936 1.21773,-1.24922 1.82658,-1.85808 0.60886,-0.60887 1.23872,-1.23873 1.87908,-1.84759 0.64035,-0.60886 1.25972,-1.21773 1.91057,-1.81609 1.28771,-1.20373 2.60342,-2.37947 3.94711,-3.52721 l 1.79509,-1.52216 c 0.76634,-0.64035 1.55366,-1.28071 2.33048,-1.90006 0.77683,-0.61937 1.41719,-1.12326 2.09953,-1.66913 0.68234,-0.54587 1.30171,-0.98678 1.96306,-1.48016 0.92379,-0.69285 1.87907,-1.3752 2.82387,-2.04704 0.56686,-0.38842 1.12324,-0.78733 1.70061,-1.17575 0.57737,-0.3884 1.27021,-0.87129 1.92107,-1.3017 l 1.62713,-1.04976 c 0.4304,-0.28344 0.8713,-0.56688 1.3227,-0.83981 v 0 l 1.91057,-1.17573 1.97356,-1.17575 c 0.44089,-0.27293 0.91329,-0.53538 1.36469,-0.78732 0.80832,-0.47239 1.62713,-0.92379 2.44595,-1.38569 1.86858,-1.02876 3.77565,-2.02604 5.72121,-2.99182 0.97978,-0.49688 1.96656,-0.97978 2.96033,-1.44867 2.61645,-1.11784 5.30669,-2.05435 8.05169,-2.80287 v 0 h 0.12597 c 12.74414,-3.75815 33.41398,-8.59756 38.16941,-14.09833 6.73948,-7.79974 3.62168,-21.80359 3.62168,-31.9338 0,-2.15202 0,-4.08358 -0.0734,-5.83669 v -0.4829 0 c -0.50389,-20.99527 -1.12022,-26.47771 0.55316,-53.28547 -3.29202,-29.56567 14.83081,-42.3581 30.11559,-6.6936 l 1.78763,4.17114 c 4.90544,11.44599 31.31676,6.17723 35.04342,9.67295 3.38024,3.14929 3.33824,35.91029 2.45644,43.97247 -0.41078,10.06231 -2.28047,20.2123 -1.49065,30.68459 6.51902,16.72274 20.58586,16.49179 36.97267,24.14456 0.87129,0.39891 1.7321,0.81882 2.59291,1.22823 3.42923,1.65863 6.73949,3.38724 9.93076,5.18583 0.44091,0.25195 0.8818,0.49339 1.31221,0.75583 l 1.30171,0.75583 c 0.54587,0.31493 1.04976,0.64035 1.61663,0.96579 l 0.69285,0.4094 c 0.97627,0.58787 1.93156,1.18623 2.88684,1.7951 0.38842,0.24145 0.76633,0.49339 1.15475,0.75583 0.61936,0.38841 1.21772,0.78732 1.81609,1.18623 0.8818,0.58787 1.7636,1.18623 2.62441,1.7846 l 0.82931,0.57736 0.4514,0.32544 0.24144,0.17845 0.22045,0.14698 c 0.52489,0.3884 1.04977,0.76632 1.57465,1.15473 l 0.51439,0.38841 0.62986,0.4619 c 0.54587,0.40941 1.04976,0.81882 1.62713,1.23872 0.8503,0.65085 1.67961,1.30171 2.49843,1.97356 3.28227,2.6524 6.41057,5.39927 9.38489,8.24064 0.73484,0.70334 1.46966,1.41719 2.18351,2.09952 0.71384,0.68235 1.17573,1.18624 1.74261,1.76362 0.22044,0.24144 0.44089,0.47239 0.67184,0.69283 0.60887,0.64036 1.20723,1.28071 1.7951,1.93157 0.58787,0.65086 1.18623,1.29121 1.75311,1.94206 l 0.65085,0.73484 1.44867,1.66912 0.33593,0.40941 c 0.57737,0.67185 1.14424,1.3647 1.71111,2.09953 0.56688,0.73483 1.24921,1.55365 1.85808,2.33047 0.60886,0.77682 1.21773,1.57465 1.7951,2.36197 1.52216,1.7636 2.86585,3.65317 4.14657,5.56375 z"
         id="path19" style="stroke-width:1.04976" />
      <path class="skinPrimary  cls-1"
         d="m 373.54714,202.42806 v 79.0577 c 0,58.97571 -46.94541,77.86096 -81.15721,107.8632 a 52.656142,52.656142 0 0 1 -70.15571,0 C 188.02242,359.34672 141.077,340.46147 141.077,281.48576 v -79.0577 c 0,-57.99944 43.20827,-105.30179 97.31309,-107.63226 1.38569,-0.0734 2.79237,-0.10498 4.19905,-0.10498 h 29.39338 c 56.06787,0 101.56462,48.23664 101.56462,107.73724 z"
         id="path21" style="stroke-width:1.04976" />
      <path class="skinShadowed"
         d="m 187.99094,281.48576 v -79.0577 c 0,-56.45629 40.94078,-102.79285 93.03005,-107.34883 -2.79238,-0.26244 -5.61624,-0.37791 -8.48209,-0.37791 h -29.39338 c -56.06788,0 -101.51214,48.28912 -101.51214,107.72674 v 39.13518 a 23.262762,23.262762 0 1 0 0,46.51503 h 0.22045 c 3.36973,53.84237 48.01618,72.43369 80.92627,101.27069 a 52.48818,52.48818 0 0 0 58.26188,7.94671 53.905361,53.905361 0 0 1 -11.88332,-7.94671 c -34.2433,-29.99174 -81.16772,-48.88749 -81.16772,-107.8632 z"
         id="path23" style="stroke-width:1.04976" />
      <circle class="skinPrimary" cx="374.06149" cy="264.8262" r="23.262762" id="circle25"
         style="stroke-width:1.04976" />
      <rect class="skinShadowed" x="240.37413" y="288.07846" width="33.791889" height="12.807116" rx="5.8681788"
         id="rect35" style="stroke-width:1.04976" />
      <path class="leftInnerEar" d="m 142.27373,255.5251 a 9.258915,9.258915 0 0 0 0,18.50733 z" id="path41"
         style="stroke-width:1.04976" />
      <path class="skinShadowed" d="m 374.07203,274.07443 a 9.258915,9.258915 0 0 0 0,-18.50734 z" id="path43"
         style="stroke-width:1.04976" />
   </g>
   <metadata id="metadata913">
      <rdf:RDF>
         <cc:Work rdf:about="">
            <dc:title>Avatar Users2</dc:title>
         </cc:Work>
      </rdf:RDF>
   </metadata>
   <path class="cls-6"
      d="M 378.75527,202.07668 V 242.253 c 0,0 -59.48936,-63.08806 -52.95632,-112.87937 0,0 -79.53137,77.21528 -185.02877,82.06892 h -0.68285 v -9.36587 c 0,-2.76823 0.0831,-5.4811 0.27683,-8.18472 3.83863,-55.75224 46.64477,-100.044005 99.65644,-102.323185 1.43025,-0.0831 2.8882,-0.1015 4.32767,-0.1015 h 30.21989 c 56.28743,0 102.11092,47.318345 104.14095,106.493975 0.0276,1.3472 0.046,2.74054 0.046,4.11543 z"
      id="path2851" style="fill:#32314b;stroke-width:0.922744" />
   <path class="cls-14"
      d="m 343.92165,108.47347 c 0.7382,8.4708 -0.11072,20.7433 -8.75684,29.98921 -1.45226,1.42453 -0.30887,3.88342 1.7163,3.69097 5.73025,-0.39678 14.13646,-1.58712 18.77785,-5.06586 1.14742,-0.88828 2.82625,-0.42708 3.3588,0.92273 1.16266,3.03583 2.61136,7.95406 1.99312,12.65084 -0.2417,2.15947 2.48986,3.29271 3.84786,1.59633 4.14312,-5.06586 7.63109,-14.10874 2.46373,-29.19563 -0.58121,-1.64394 -2.76243,-1.97217 -3.80171,-0.5721 l -0.80281,1.08884 c -0.87629,1.20466 -2.6804,1.18104 -3.52488,-0.046 l -11.3313,-16.4987 c -1.27209,-1.83201 -4.14859,-0.78112 -3.94012,1.4395 z"
      id="path2853" style="fill:#3e436d;stroke-width:0.922744" />
</svg>