<?xml version="1.0" encoding="UTF-8" standalone="no"?>
<svg viewBox="0 0 512 512" version="1.1" id="svg76" xmlns="http://www.w3.org/2000/svg"
   xmlns:svg="http://www.w3.org/2000/svg" xmlns:rdf="http://www.w3.org/1999/02/22-rdf-syntax-ns#"
   xmlns:cc="http://creativecommons.org/ns#" xmlns:dc="http://purl.org/dc/elements/1.1/">
   <defs id="defs4">
      <style id="style2">
         .skinPrimary {
            fill: #fcca92;
         }

         .skinShadowed {
            fill: #daa25d;
         }





         .leftInnerEar {
            fill: #bc9267;
         }
      </style>
   </defs>
   <title id="title6">Avatar Users2</title>
   <g id="Icons">
      <path class="hairMediumShade"
         d="m 410.33714,200.23703 c 0,29.87873 -12.12665,57.42899 -32.5163,79.33318 a 141.04821,141.04821 0 0 1 -15.74299,14.53755 164.84816,164.84816 0 0 1 -62.66292,30.38357 c 26.39632,12.36361 44.30294,36.30782 44.30294,63.81685 0,26.65388 -16.8042,49.9593 -41.87142,62.632 a 96.271325,96.271325 0 0 1 -43.4581,10.13816 c -47.13627,0 -85.33983,-32.57812 -85.33983,-72.77016 0,-26.7054 16.88663,-50.04172 42.02598,-62.70412 A 166.45543,166.45543 0 0 1 149.76372,295.78715 144.68517,144.68517 0 0 1 134.15465,281.9296 C 112.4153,259.62359 99.392302,231.18728 99.392302,200.19582 c 0,-23.56298 7.521198,-45.66293 20.688438,-64.7029 20.01875,-28.91025 52.98838,-50.793843 92.3974,-60.087158 a 184.36206,184.36206 0 0 1 42.38658,-4.873324 c 42.61325,0 81.22893,14.290275 109.31494,37.472052 a 140.93487,140.93487 0 0 1 12.36361,11.47756 c 15.77391,16.48481 26.78782,36.3078 31.41388,57.95442 a 109.97432,109.97432 0 0 1 2.37999,22.80056 z"
         id="path2177" style="fill:#32314b;stroke-width:1.0303" />
      <path class="hairDarkShade"
         d="m 301.85675,450.97109 c -13.49205,6.73646 -28.37797,10.20914 -43.4581,10.13816 -47.13627,0 -85.33983,-32.57812 -85.33983,-72.77016 0,-26.7054 16.88663,-50.04172 42.02598,-62.70412 -23.68002,-5.06979 -45.96866,-15.24542 -65.31078,-29.81691 -10.50315,-19.22865 -13.52636,-20.01249 -15.61937,-13.88846 -21.73935,-22.30601 -34.762348,-50.74232 -34.762348,-81.73378 0,-23.56298 7.521198,-45.66293 20.688438,-64.7029 -0.0618,-1.0303 -0.0824,-2.0606 -0.0824,-3.0909 0.0341,-31.23612 25.36858,-56.538319 56.60472,-56.532623 4.38816,0.0031 8.76138,0.511276 13.03331,1.514543 6.39279,-8.360186 14.38511,-15.364847 23.51147,-20.60602 -0.29879,5.563625 -0.54606,11.786643 -0.66969,18.627842 -0.47242,32.024698 1.30752,64.042988 5.32665,95.817998 9.07695,73.50167 31.76419,170.1027 84.05196,279.74733 z"
         id="path2179" style="fill:#27273d;stroke-width:1.0303" />
      <path class="skinPrimary"
         d="m 398.76064,515.87019 c -108.43239,0 -178.90195,2.05071 -286.35832,0.39196 0.46963,-0.68806 -1.32032,-3.63573 -0.83978,-4.31287 1.09218,-1.43075 2.1079,-2.87241 3.20008,-4.28133 0.54608,-0.69899 1.09217,-1.38706 1.64917,-2.09698 1.57273,-1.97682 3.22193,-3.90997 4.91479,-5.82128 l 0.52425,-0.6007 1.58365,-1.72562 1.8567,-1.96591 c 0.62253,-0.64439 1.26693,-1.2997 1.90037,-1.93315 0.63346,-0.63347 1.28877,-1.28878 1.955,-1.92224 0.66622,-0.63345 1.31061,-1.26692 1.98776,-1.88946 1.33973,-1.25235 2.7086,-2.4756 4.10657,-3.6697 l 1.86761,-1.58366 c 0.7973,-0.66622 1.61643,-1.33245 2.42463,-1.97682 0.80822,-0.64439 1.47445,-1.16864 2.18435,-1.73656 0.70991,-0.56793 1.35431,-1.02666 2.04237,-1.53996 0.96111,-0.72084 1.95498,-1.43076 2.93796,-2.12974 0.58976,-0.40411 1.16862,-0.81914 1.76931,-1.22325 0.6007,-0.4041 1.32153,-0.90649 1.99868,-1.35429 l 1.69287,-1.09217 c 0.44778,-0.2949 0.9065,-0.58979 1.37613,-0.87374 v 0 l 1.98776,-1.22323 2.05329,-1.22325 c 0.4587,-0.28395 0.95019,-0.55701 1.41983,-0.81913 0.84097,-0.49148 1.69286,-0.96111 2.54477,-1.44167 1.94407,-1.07032 3.92818,-2.10789 5.95234,-3.11269 1.01937,-0.51696 2.04601,-1.01937 3.07993,-1.50719 2.72216,-1.16301 5.52108,-2.13735 8.37698,-2.91611 v 0 h 0.13106 c 13.259,-3.90998 34.7639,-8.9449 39.71145,-14.66791 7.01176,-8.11484 3.76799,-22.68445 3.76799,-33.22392 0,-2.23896 0,-4.24856 -0.0764,-6.07249 v -0.50242 0 c -0.52424,-21.84347 -1.16548,-27.5474 0.57551,-55.43819 -3.42502,-30.76013 15.42997,-44.06937 31.33226,-6.96403 l 1.85985,4.33966 c 5.10362,11.90841 32.58196,6.42679 36.45917,10.06374 3.5168,3.27652 3.4731,37.36106 2.55568,45.74895 -0.42738,10.46883 -2.3726,21.02888 -1.55087,31.92425 6.78239,17.39834 21.41752,17.15806 38.46637,25.12 0.90649,0.41503 1.80207,0.8519 2.69766,1.27785 3.56777,1.72564 7.01177,3.52409 10.33196,5.39534 0.45872,0.26213 0.91743,0.51333 1.36523,0.78637 l 1.35429,0.78636 c 0.56793,0.32765 1.09218,0.66622 1.68194,1.00481 l 0.72085,0.42594 c 1.01571,0.61161 2.00959,1.23415 3.00347,1.86762 0.40411,0.25121 0.79728,0.51333 1.20139,0.78636 0.64439,0.4041 1.26693,0.81913 1.88946,1.23416 0.91743,0.61162 1.83486,1.23415 2.73044,1.8567 l 0.86282,0.60068 0.46964,0.33859 0.25119,0.18566 0.22935,0.15292 c 0.5461,0.40409 1.09218,0.79727 1.63827,1.20138 l 0.53518,0.4041 0.6553,0.48056 c 0.56792,0.42595 1.09217,0.8519 1.69287,1.28876 0.88464,0.67715 1.74746,1.3543 2.59936,2.0533 3.41487,2.75955 6.66956,5.6174 9.76404,8.57355 0.76453,0.73176 1.52903,1.47445 2.27172,2.18435 0.74268,0.70991 1.22324,1.23416 1.81301,1.83487 0.22935,0.2512 0.45871,0.49148 0.69899,0.72082 0.63347,0.66623 1.256,1.33245 1.86762,2.00961 0.61162,0.67715 1.23416,1.34337 1.82393,2.02052 l 0.67715,0.76452 1.5072,1.73656 0.34949,0.42594 c 0.6007,0.699 1.19048,1.41984 1.78025,2.18435 0.58977,0.76452 1.29967,1.61643 1.93314,2.42462 0.63346,0.80821 1.26693,1.63828 1.86762,2.4574 1.58366,1.83485 10.1129,5.78853 7.71985,5.78853 z"
         id="path19" style="stroke-width:1.09218" />
      <path class="skinPrimary"
         d="m 373.54714,202.42806 v 79.0577 c 0,58.97571 -46.94541,77.86096 -81.15721,107.8632 a 52.656142,52.656142 0 0 1 -70.15571,0 C 188.02242,359.34672 141.077,340.46147 141.077,281.48576 v -79.0577 c 0,-57.99944 43.20827,-105.30179 97.31309,-107.63226 1.38569,-0.0734 2.79237,-0.10498 4.19905,-0.10498 h 29.39338 c 56.06787,0 101.56462,48.23664 101.56462,107.73724 z"
         id="path21" style="stroke-width:1.04976" />
      <path class="skinShadowed"
         d="m 187.99094,281.48576 v -79.0577 c 0,-56.45629 40.94078,-102.79285 93.03005,-107.34883 -2.79238,-0.26244 -5.61624,-0.37791 -8.48209,-0.37791 h -29.39338 c -56.06788,0 -101.51214,48.28912 -101.51214,107.72674 v 39.13518 a 23.262762,23.262762 0 1 0 0,46.51503 h 0.22045 c 3.36973,53.84237 48.01618,72.43369 80.92627,101.27069 a 52.48818,52.48818 0 0 0 58.26188,7.94671 53.905361,53.905361 0 0 1 -11.88332,-7.94671 c -34.2433,-29.99174 -81.16772,-48.88749 -81.16772,-107.8632 z"
         id="path23" style="stroke-width:1.04976" />
      <circle class="skinPrimary" cx="374.06149" cy="264.8262" r="23.262762" id="circle25"
         style="stroke-width:1.04976" />
      <rect class="skinShadowed" x="240.37413" y="288.07846" width="33.791889" height="12.807116" rx="5.8681788"
         id="rect35" style="stroke-width:1.04976" />
      <path class="leftInnerEar" d="m 142.27373,255.5251 a 9.258915,9.258915 0 0 0 0,18.50733 z" id="path41"
         style="stroke-width:1.04976" />
      <path class="skinShadowed" d="m 374.07203,274.07443 a 9.258915,9.258915 0 0 0 0,-18.50734 z" id="path43"
         style="stroke-width:1.04976" />
   </g>
   <metadata id="metadata913">
      <rdf:RDF>
         <cc:Work rdf:about="">
            <dc:title>Avatar Users2</dc:title>
         </cc:Work>
      </rdf:RDF>
   </metadata>
   <path class="hairMediumShade"
      d="m 410.33714,162.95044 c 0.031,21.78479 -15.62791,40.42762 -37.09084,44.1587 -7.52785,0.96437 -14.15162,-0.32529 -24.35631,-2.51393 -15.56027,-6.23396 -26.35376,-20.61468 -27.99328,-37.29689 -31.70006,14.07943 -67.89295,14.00825 -99.53738,-0.19576 -1.10242,1.42182 -2.28726,2.79211 -3.52362,4.1212 -12.71461,13.53627 -31.26478,19.96741 -49.62961,17.20603 -12.49387,-16.3018 -3.56021,-19.47084 -25.24237,-10.56059 -13.58019,-10.01174 -21.97355,-25.57026 -22.88299,-42.41749 -0.0618,-1.0303 -0.0824,-2.0606 -0.0824,-3.0909 0.0568,-31.22002 25.38465,-56.497139 56.60472,-56.491413 4.38816,0.0031 8.76138,0.511276 13.03331,1.514543 6.39279,-8.360186 14.38511,-15.364847 23.51147,-20.60602 15.91816,-9.365436 36.16357,-14.970274 58.15019,-14.970274 50.48474,0 91.57315,29.476912 92.88164,66.196844 v 1.80302 c -10e-4,2.80074 -0.24251,5.59622 -0.72121,8.35575 h 2.0606 c 3.72117,-0.009 7.42863,0.45118 11.03452,1.3703 19.85495,5.05878 33.75907,22.92762 33.78357,43.41688 z"
      id="path2229" style="fill:#32314b;stroke-width:1.0303" />
   <path class="hairLightShade"
      d="m 321.13368,89.26331 c 1.09212,12.48725 -0.16484,30.57934 -12.90967,44.19992 a 3.1939331,3.1939331 0 0 0 2.53453,5.38848 c 8.44847,-0.58728 20.8327,-2.33879 27.67389,-7.45939 a 3.2042361,3.2042361 0 0 1 4.95575,1.32909 c 1.72061,4.4612 3.84302,11.72483 2.92606,18.63815 a 3.1939331,3.1939331 0 0 0 5.67696,2.34908 c 6.10968,-7.46968 11.25088,-20.79147 3.62666,-43.02537 a 3.1939331,3.1939331 0 0 0 -5.59454,-0.84484 l -1.18485,1.60727 a 3.1939331,3.1939331 0 0 1 -5.20301,-0.0721 L 326.94458,87.202708 a 3.1939331,3.1939331 0 0 0 -5.8109,2.060602 z"
      id="path2239" style="fill:#3e436d;stroke-width:1.0303" />
   <path class="hairDarkShade"
      d="m 217.79839,171.35815 c -12.71461,13.53627 -31.26478,19.96741 -49.62961,17.20603 -15.17478,-2.27813 -14.57045,-2.53759 -25.21145,-10.53998 -13.57743,-10.01284 -21.96715,-25.57162 -22.87269,-42.41749 -0.0618,-1.0303 -0.0927,-2.0606 -0.0927,-3.09091 0.0568,-31.22002 25.38466,-56.497139 56.60473,-56.491408 4.39156,0.0031 8.76818,0.5113 13.04361,1.514542 6.38671,-8.365865 14.38027,-15.371613 23.51147,-20.60602 -0.30909,5.563626 3.72969,13.393913 -0.6697,18.627842 -25.0054,29.724184 -30.44539,55.965964 5.31636,95.797394 z"
      id="path2237" style="fill:#27273d;stroke-width:1.0303" />
</svg>