<?xml version="1.0" encoding="UTF-8" standalone="no"?>
<svg
   viewBox="0 0 512 512"
   version="1.1"
   id="svg76"
   xmlns="http://www.w3.org/2000/svg"
   xmlns:svg="http://www.w3.org/2000/svg"
   xmlns:rdf="http://www.w3.org/1999/02/22-rdf-syntax-ns#"
   xmlns:cc="http://creativecommons.org/ns#"
   xmlns:dc="http://purl.org/dc/elements/1.1/">
  <defs
     id="defs4">
    <style
       id="style2">
         .skinPrimary {
            fill: #fcca92;
         }

         .skinShadowed {
            fill: #daa25d;
         }





         .leftInnerEar {
            fill: #bc9267;
         }
      </style>
  </defs>
  <title
     id="title6">Avatar Users2</title>
  <g
     id="Icons">
    <path
       class="cls-3"
       d="m 83.577467,204.48117 c 0,9.68281 -11.79612,20.17252 -10.336013,29.45188 1.498529,9.5291 15.974707,15.87865 18.885313,24.85061 2.968242,9.13526 -4.995099,22.77573 -0.682023,31.20976 4.313076,8.43404 20.076466,10.06705 25.667136,17.75182 5.59067,7.68476 2.2574,23.15997 8.99118,29.89374 6.73378,6.73378 22.17055,3.37169 29.89375,8.99119 7.72319,5.61948 9.23132,21.31562 17.75181,25.66712 8.52048,4.3515 22.09371,-3.65026 31.20976,-0.68202 8.97197,2.88179 15.32151,17.38679 24.85062,18.88532 9.26976,1.46011 19.76906,-10.33602 29.45188,-10.33602 9.6828,0 20.17252,11.79613 29.46147,10.33602 9.51951,-1.49853 15.86905,-15.97471 24.85062,-18.88532 9.12566,-2.96824 22.76613,4.9951 31.20016,0.68202 8.43404,-4.31308 10.07665,-20.07645 17.75182,-25.66712 7.67516,-5.59067 23.15997,-2.25741 29.89374,-8.99119 6.73378,-6.73377 3.37169,-22.17055 8.99119,-29.89374 5.61948,-7.72319 21.32522,-9.23133 25.67673,-17.75182 4.35149,-8.52049 -3.65987,-22.0937 -0.69163,-31.20976 2.88179,-8.97196 17.38678,-15.36954 18.8853,-24.85061 1.46012,-9.26976 -10.336,-19.76907 -10.336,-29.45188 0,-9.68281 11.79612,-20.17252 10.336,-29.46148 -1.49852,-9.51951 -15.97469,-15.86905 -18.8853,-24.85061 -2.91061,-8.98158 4.9951,-22.76613 0.69163,-31.20017 -4.30348,-8.43403 -20.08607,-10.07665 -25.67673,-17.76142 -5.59068,-7.684769 -2.25741,-23.150367 -8.99119,-29.884145 -6.73377,-6.733778 -22.17055,-3.371692 -29.89374,-8.991178 -7.7232,-5.619487 -9.23133,-21.354049 -17.75182,-25.676732 -8.52049,-4.322682 -22.0937,3.650266 -31.20016,0.69163 -8.98157,-2.881788 -15.36953,-17.396394 -24.85062,-18.885318 -9.27935,-1.460106 -19.76905,10.326406 -29.46147,10.326406 -9.69242,0 -20.17252,-11.786512 -29.45188,-10.326406 -9.52911,1.488924 -15.87865,15.965106 -24.85062,18.885318 -9.13527,2.958636 -22.77573,-4.9951 -31.20976,-0.69163 -8.43403,4.303472 -10.07665,20.086063 -17.75181,25.676732 -7.67516,5.590669 -23.15997,2.2574 -29.89375,8.991178 -6.73378,6.733778 -3.37171,22.170557 -8.99118,29.893755 -5.61949,7.72319 -21.315636,9.23133 -25.686348,17.75181 -4.370712,8.52048 3.650265,22.09371 0.682023,31.20017 -2.968242,9.10643 -17.386784,15.36953 -18.885313,24.85061 -1.440895,9.27936 10.355225,19.76906 10.355225,29.46148 z"
       id="path1136"
       style="fill:#27273d;stroke-width:0.960596" />
    <path
       class="skinPrimary"
       d="m 398.76064,515.87019 c -108.43239,0 -178.90195,2.05071 -286.35832,0.39196 0.46963,-0.68806 -1.32032,-3.63573 -0.83978,-4.31287 1.09218,-1.43075 2.1079,-2.87241 3.20008,-4.28133 0.54608,-0.69899 1.09217,-1.38706 1.64917,-2.09698 1.57273,-1.97682 3.22193,-3.90997 4.91479,-5.82128 l 0.52425,-0.6007 1.58365,-1.72562 1.8567,-1.96591 c 0.62253,-0.64439 1.26693,-1.2997 1.90037,-1.93315 0.63346,-0.63347 1.28877,-1.28878 1.955,-1.92224 0.66622,-0.63345 1.31061,-1.26692 1.98776,-1.88946 1.33973,-1.25235 2.7086,-2.4756 4.10657,-3.6697 l 1.86761,-1.58366 c 0.7973,-0.66622 1.61643,-1.33245 2.42463,-1.97682 0.80822,-0.64439 1.47445,-1.16864 2.18435,-1.73656 0.70991,-0.56793 1.35431,-1.02666 2.04237,-1.53996 0.96111,-0.72084 1.95498,-1.43076 2.93796,-2.12974 0.58976,-0.40411 1.16862,-0.81914 1.76931,-1.22325 0.6007,-0.4041 1.32153,-0.90649 1.99868,-1.35429 l 1.69287,-1.09217 c 0.44778,-0.2949 0.9065,-0.58979 1.37613,-0.87374 v 0 l 1.98776,-1.22323 2.05329,-1.22325 c 0.4587,-0.28395 0.95019,-0.55701 1.41983,-0.81913 0.84097,-0.49148 1.69286,-0.96111 2.54477,-1.44167 1.94407,-1.07032 3.92818,-2.10789 5.95234,-3.11269 1.01937,-0.51696 2.04601,-1.01937 3.07993,-1.50719 2.72216,-1.16301 5.52108,-2.13735 8.37698,-2.91611 v 0 h 0.13106 c 13.259,-3.90998 34.7639,-8.9449 39.71145,-14.66791 7.01176,-8.11484 3.76799,-22.68445 3.76799,-33.22392 0,-2.23896 0,-4.24856 -0.0764,-6.07249 v -0.50242 0 c -0.52424,-21.84347 -1.16548,-27.5474 0.57551,-55.43819 -3.42502,-30.76013 15.42997,-44.06937 31.33226,-6.96403 l 1.85985,4.33966 c 5.10362,11.90841 32.58196,6.42679 36.45917,10.06374 3.5168,3.27652 3.4731,37.36106 2.55568,45.74895 -0.42738,10.46883 -2.3726,21.02888 -1.55087,31.92425 6.78239,17.39834 21.41752,17.15806 38.46637,25.12 0.90649,0.41503 1.80207,0.8519 2.69766,1.27785 3.56777,1.72564 7.01177,3.52409 10.33196,5.39534 0.45872,0.26213 0.91743,0.51333 1.36523,0.78637 l 1.35429,0.78636 c 0.56793,0.32765 1.09218,0.66622 1.68194,1.00481 l 0.72085,0.42594 c 1.01571,0.61161 2.00959,1.23415 3.00347,1.86762 0.40411,0.25121 0.79728,0.51333 1.20139,0.78636 0.64439,0.4041 1.26693,0.81913 1.88946,1.23416 0.91743,0.61162 1.83486,1.23415 2.73044,1.8567 l 0.86282,0.60068 0.46964,0.33859 0.25119,0.18566 0.22935,0.15292 c 0.5461,0.40409 1.09218,0.79727 1.63827,1.20138 l 0.53518,0.4041 0.6553,0.48056 c 0.56792,0.42595 1.09217,0.8519 1.69287,1.28876 0.88464,0.67715 1.74746,1.3543 2.59936,2.0533 3.41487,2.75955 6.66956,5.6174 9.76404,8.57355 0.76453,0.73176 1.52903,1.47445 2.27172,2.18435 0.74268,0.70991 1.22324,1.23416 1.81301,1.83487 0.22935,0.2512 0.45871,0.49148 0.69899,0.72082 0.63347,0.66623 1.256,1.33245 1.86762,2.00961 0.61162,0.67715 1.23416,1.34337 1.82393,2.02052 l 0.67715,0.76452 1.5072,1.73656 0.34949,0.42594 c 0.6007,0.699 1.19048,1.41984 1.78025,2.18435 0.58977,0.76452 1.29967,1.61643 1.93314,2.42462 0.63346,0.80821 1.26693,1.63828 1.86762,2.4574 1.58366,1.83485 10.1129,5.78853 7.71985,5.78853 z"
       id="path19"
       style="stroke-width:1.09218" />
    <path
       class="skinPrimary"
       d="m 373.54714,202.42806 v 79.0577 c 0,58.97571 -46.94541,77.86096 -81.15721,107.8632 a 52.656142,52.656142 0 0 1 -70.15571,0 C 188.02242,359.34672 141.077,340.46147 141.077,281.48576 v -79.0577 c 0,-57.99944 43.20827,-105.30179 97.31309,-107.63226 1.38569,-0.0734 2.79237,-0.10498 4.19905,-0.10498 h 29.39338 c 56.06787,0 101.56462,48.23664 101.56462,107.73724 z"
       id="path21"
       style="stroke-width:1.04976" />
    <path
       class="skinShadowed"
       d="m 187.99094,281.48576 v -79.0577 c 0,-56.45629 40.94078,-102.79285 93.03005,-107.34883 -2.79238,-0.26244 -5.61624,-0.37791 -8.48209,-0.37791 h -29.39338 c -56.06788,0 -101.51214,48.28912 -101.51214,107.72674 v 39.13518 a 23.262762,23.262762 0 1 0 0,46.51503 h 0.22045 c 3.36973,53.84237 48.01618,72.43369 80.92627,101.27069 a 52.48818,52.48818 0 0 0 58.26188,7.94671 53.905361,53.905361 0 0 1 -11.88332,-7.94671 c -34.2433,-29.99174 -81.16772,-48.88749 -81.16772,-107.8632 z"
       id="path23"
       style="stroke-width:1.04976" />
    <circle
       class="skinPrimary"
       cx="374.06149"
       cy="264.8262"
       r="23.262762"
       id="circle25"
       style="stroke-width:1.04976" />
    <rect
       class="skinShadowed"
       x="240.37413"
       y="288.07846"
       width="33.791889"
       height="12.807116"
       rx="5.8681788"
       id="rect35"
       style="stroke-width:1.04976" />
    <path
       class="leftInnerEar"
       d="m 142.27373,255.5251 a 9.258915,9.258915 0 0 0 0,18.50733 z"
       id="path41"
       style="stroke-width:1.04976" />
    <path
       class="skinShadowed"
       d="m 374.07203,274.07443 a 9.258915,9.258915 0 0 0 0,-18.50734 z"
       id="path43"
       style="stroke-width:1.04976" />
  </g>
  <metadata
     id="metadata913">
    <rdf:RDF>
      <cc:Work
         rdf:about="">
        <dc:title>Avatar Users2</dc:title>
      </cc:Work>
    </rdf:RDF>
  </metadata>
  <path
     class="cls-3"
     d="m 381.90016,203.74151 v 8.64536 c -2.72809,2.67046 -5.57145,4.80298 -8.84709,5.36013 -8.40521,1.32562 -17.92471,-9.3562 -26.70456,-9.3562 -8.77985,0 -18.25133,10.68182 -26.70457,9.3562 -8.64536,-1.34483 -14.40895,-14.46658 -22.51637,-17.10822 -8.28033,-2.69927 -20.65282,4.51481 -28.29916,0.61478 -7.64634,-3.90001 -9.12566,-18.20329 -16.08037,-23.27523 -3.45815,-2.50716 -8.59734,-3.03549 -13.66928,-3.66948 -5.76358,1.85394 -13.75574,1.08547 -18.25132,4.3707 -5.76359,4.22663 -6.97394,16.0996 -13.40033,19.39444 -6.42638,3.29485 -16.68556,-2.7473 -23.59223,-0.50911 -6.90669,2.23818 -11.58479,13.13135 -18.77006,14.26484 -7.01234,1.10469 -14.94686,-7.80964 -22.26661,-7.80964 a 15.840229,15.840229 0 0 0 -6.87786,1.98844 v -2.22859 c 0,-62.95746 48.10665,-113.993929 107.43305,-113.993929 h 31.15213 c 59.3072,-0.03842 107.39463,50.998039 107.39463,113.955509 z"
     id="path1170"
     style="fill:#27273d;stroke-width:0.960596" />
  <path
     class="cls-10"
     d="m 328.55827,93.205723 c 1.09508,12.439717 -0.16331,30.450907 -12.85278,44.024127 a 3.1795728,3.1795728 0 0 0 2.51677,5.36973 c 8.41482,-0.58597 20.75848,-2.33426 27.5691,-7.43502 a 3.1987847,3.1987847 0 0 1 4.93747,1.32562 c 1.70986,4.44756 3.84238,11.68085 2.88178,18.56832 a 3.1795728,3.1795728 0 0 0 5.64831,2.34386 c 6.09018,-7.44463 11.21015,-20.71045 3.62144,-42.86179 a 3.1987847,3.1987847 0 0 0 -5.58106,-0.84533 l -1.17192,1.6042 a 3.1795728,3.1795728 0 0 1 -5.18722,-0.0768 l -16.5895,-24.091775 a 3.1795728,3.1795728 0 0 0 -5.79239,2.074888 z"
     id="path1172"
     style="fill:#32314b;stroke-width:0.960596" />
</svg>
