<?xml version="1.0" encoding="UTF-8" standalone="no"?>
<svg
   viewBox="0 0 512 512"
   version="1.1"
   id="svg76"
   xmlns="http://www.w3.org/2000/svg"
   xmlns:svg="http://www.w3.org/2000/svg"
   xmlns:rdf="http://www.w3.org/1999/02/22-rdf-syntax-ns#"
   xmlns:cc="http://creativecommons.org/ns#"
   xmlns:dc="http://purl.org/dc/elements/1.1/">
  <defs
     id="defs4">
    <style
       id="style2">
         .skinPrimary {
            fill: #fcca92;
         }

         .skinShadowed {
            fill: #daa25d;
         }





         .leftInnerEar {
            fill: #bc9267;
         }
      </style>
  </defs>
  <title
     id="title6">Avatar Users2</title>
  <g
     id="Icons">
    <path
       class="cls-3"
       d="m 456.56932,545.53135 c -6.82382,8.44786 -18.75793,2.74678 -26.62637,10.23132 -44.88875,-26.28813 -0.28598,-15.50714 -17.33725,-2.47857 -11.47183,19.0454 -29.93862,-7.07381 -45.90039,-2.93122 -2.92069,1.34601 -7.68672,2.62994 -10.64662,3.8518 -18.31463,7.56329 -40.2063,-21.77866 -59.79021,-18.76214 -5.18146,0.80368 -10.40866,1.45708 -15.6816,1.9602 -7.54023,0.6534 -15.16541,0.9801 -22.87553,0.9801 -7.71012,0 -15.42024,-0.34957 -23.13036,-1.04871 -18.18584,17.46313 -61.49614,21.01512 -77.79486,15.66913 -10.04188,-4.60543 -6.0734,3.81927 -15.41604,-2.07688 l -1.14672,-5.29938 c -0.85269,-0.54886 5.59753,42.71967 -10.76402,1.08221 -7.17257,-4.68905 -15.92072,-1.53425 -22.56465,-6.94639 -5.70418,-4.613 -12.105596,16.07605 -17.378534,10.94685 -7.533847,-7.29113 -39.248551,-4.09491 -45.807636,-12.27402 4.473756,-5.59911 27.608593,-104.88804 32.850931,-109.775 -15.936426,-42.59515 0.578259,-81.48552 12.016026,-101.09732 2.651954,-4.66132 5.635897,-9.12577 8.928711,-13.35876 -12.290454,-67.67591 18.014242,-102.51846 18.014242,-102.51846 -4.26343,-33.3234 14.93672,-77.01626 14.93672,-77.01626 33.16659,-83.769155 112.36847,-76.898654 125.53121,-75.134474 l 0.65667,0.08821 0.51945,0.07841 c 8.47787,-1.303533 92.31562,-11.878812 126.72693,74.967854 0,0 19.19036,43.70266 14.93673,77.01626 0,0 30.26548,34.84255 17.99463,102.54786 2.79496,3.57651 5.35826,7.32815 7.67419,11.23195 11.40836,18.85712 29.81464,59.04122 13.29015,103.22413 5.45051,5.0868 14.16059,110.99273 18.7842,116.8413 z"
       id="path305"
       style="fill:#873d2b;stroke-width:0.9801" />
    <path
       class="skinPrimary"
       d="m 398.76064,515.87019 c -108.43239,0 -178.90195,2.05071 -286.35832,0.39196 0.46963,-0.68806 -1.32032,-3.63573 -0.83978,-4.31287 1.09218,-1.43075 2.1079,-2.87241 3.20008,-4.28133 0.54608,-0.69899 1.09217,-1.38706 1.64917,-2.09698 1.57273,-1.97682 3.22193,-3.90997 4.91479,-5.82128 l 0.52425,-0.6007 1.58365,-1.72562 1.8567,-1.96591 c 0.62253,-0.64439 1.26693,-1.2997 1.90037,-1.93315 0.63346,-0.63347 1.28877,-1.28878 1.955,-1.92224 0.66622,-0.63345 1.31061,-1.26692 1.98776,-1.88946 1.33973,-1.25235 2.7086,-2.4756 4.10657,-3.6697 l 1.86761,-1.58366 c 0.7973,-0.66622 1.61643,-1.33245 2.42463,-1.97682 0.80822,-0.64439 1.47445,-1.16864 2.18435,-1.73656 0.70991,-0.56793 1.35431,-1.02666 2.04237,-1.53996 0.96111,-0.72084 1.95498,-1.43076 2.93796,-2.12974 0.58976,-0.40411 1.16862,-0.81914 1.76931,-1.22325 0.6007,-0.4041 1.32153,-0.90649 1.99868,-1.35429 l 1.69287,-1.09217 c 0.44778,-0.2949 0.9065,-0.58979 1.37613,-0.87374 v 0 l 1.98776,-1.22323 2.05329,-1.22325 c 0.4587,-0.28395 0.95019,-0.55701 1.41983,-0.81913 0.84097,-0.49148 1.69286,-0.96111 2.54477,-1.44167 1.94407,-1.07032 3.92818,-2.10789 5.95234,-3.11269 1.01937,-0.51696 2.04601,-1.01937 3.07993,-1.50719 2.72216,-1.16301 5.52108,-2.13735 8.37698,-2.91611 v 0 h 0.13106 c 13.259,-3.90998 34.7639,-8.9449 39.71145,-14.66791 7.01176,-8.11484 3.76799,-22.68445 3.76799,-33.22392 0,-2.23896 0,-4.24856 -0.0764,-6.07249 v -0.50242 0 c -0.52424,-21.84347 -1.16548,-27.5474 0.57551,-55.43819 -3.42502,-30.76013 15.42997,-44.06937 31.33226,-6.96403 l 1.85985,4.33966 c 5.10362,11.90841 32.58196,6.42679 36.45917,10.06374 3.5168,3.27652 3.4731,37.36106 2.55568,45.74895 -0.42738,10.46883 -2.3726,21.02888 -1.55087,31.92425 6.78239,17.39834 21.41752,17.15806 38.46637,25.12 0.90649,0.41503 1.80207,0.8519 2.69766,1.27785 3.56777,1.72564 7.01177,3.52409 10.33196,5.39534 0.45872,0.26213 0.91743,0.51333 1.36523,0.78637 l 1.35429,0.78636 c 0.56793,0.32765 1.09218,0.66622 1.68194,1.00481 l 0.72085,0.42594 c 1.01571,0.61161 2.00959,1.23415 3.00347,1.86762 0.40411,0.25121 0.79728,0.51333 1.20139,0.78636 0.64439,0.4041 1.26693,0.81913 1.88946,1.23416 0.91743,0.61162 1.83486,1.23415 2.73044,1.8567 l 0.86282,0.60068 0.46964,0.33859 0.25119,0.18566 0.22935,0.15292 c 0.5461,0.40409 1.09218,0.79727 1.63827,1.20138 l 0.53518,0.4041 0.6553,0.48056 c 0.56792,0.42595 1.09217,0.8519 1.69287,1.28876 0.88464,0.67715 1.74746,1.3543 2.59936,2.0533 3.41487,2.75955 6.66956,5.6174 9.76404,8.57355 0.76453,0.73176 1.52903,1.47445 2.27172,2.18435 0.74268,0.70991 1.22324,1.23416 1.81301,1.83487 0.22935,0.2512 0.45871,0.49148 0.69899,0.72082 0.63347,0.66623 1.256,1.33245 1.86762,2.00961 0.61162,0.67715 1.23416,1.34337 1.82393,2.02052 l 0.67715,0.76452 1.5072,1.73656 0.34949,0.42594 c 0.6007,0.699 1.19048,1.41984 1.78025,2.18435 0.58977,0.76452 1.29967,1.61643 1.93314,2.42462 0.63346,0.80821 1.26693,1.63828 1.86762,2.4574 1.58366,1.83485 10.1129,5.78853 7.71985,5.78853 z"
       id="path19"
       style="stroke-width:1.09218" />
    <path
       class="skinPrimary"
       d="m 373.54714,202.42806 v 79.0577 c 0,58.97571 -46.94541,77.86096 -81.15721,107.8632 a 52.656142,52.656142 0 0 1 -70.15571,0 C 188.02242,359.34672 141.077,340.46147 141.077,281.48576 v -79.0577 c 0,-57.99944 43.20827,-105.30179 97.31309,-107.63226 1.38569,-0.0734 2.79237,-0.10498 4.19905,-0.10498 h 29.39338 c 56.06787,0 101.56462,48.23664 101.56462,107.73724 z"
       id="path21"
       style="stroke-width:1.04976" />
    <path
       class="skinShadowed"
       d="m 187.99094,281.48576 v -79.0577 c 0,-56.45629 40.94078,-102.79285 93.03005,-107.34883 -2.79238,-0.26244 -5.61624,-0.37791 -8.48209,-0.37791 h -29.39338 c -56.06788,0 -101.51214,48.28912 -101.51214,107.72674 v 39.13518 a 23.262762,23.262762 0 1 0 0,46.51503 h 0.22045 c 3.36973,53.84237 48.01618,72.43369 80.92627,101.27069 a 52.48818,52.48818 0 0 0 58.26188,7.94671 53.905361,53.905361 0 0 1 -11.88332,-7.94671 c -34.2433,-29.99174 -81.16772,-48.88749 -81.16772,-107.8632 z"
       id="path23"
       style="stroke-width:1.04976" />
    <circle
       class="skinPrimary"
       cx="374.06149"
       cy="264.8262"
       r="23.262762"
       id="circle25"
       style="stroke-width:1.04976" />
    <rect
       class="skinShadowed"
       x="240.37413"
       y="288.07846"
       width="33.791889"
       height="12.807116"
       rx="5.8681788"
       id="rect35"
       style="stroke-width:1.04976" />
    <path
       class="leftInnerEar"
       d="m 142.27373,255.5251 a 9.258915,9.258915 0 0 0 0,18.50733 z"
       id="path41"
       style="stroke-width:1.04976" />
    <path
       class="skinShadowed"
       d="m 374.07203,274.07443 a 9.258915,9.258915 0 0 0 0,-18.50734 z"
       id="path43"
       style="stroke-width:1.04976" />
  </g>
  <metadata
     id="metadata913">
    <rdf:RDF>
      <cc:Work
         rdf:about="">
        <dc:title>Avatar Users2</dc:title>
      </cc:Work>
    </rdf:RDF>
  </metadata>
  <path
     class="cls-11"
     d="m 468.43653,515.4069 c -6.82383,8.44786 -16.01934,5.48536 -23.88779,12.96991 4.18439,-24.21964 -49.19215,-97.61875 -49.19215,-97.61875 -39.92927,-29.14817 -18.07304,-102.8615 -18.07304,-102.8615 v 0 c 3.17862,-10.41227 5.37385,-21.09967 6.55687,-31.92185 0.22542,-2.13662 0.41164,-4.23403 0.53905,-6.30205 0.0784,-1.22512 0.14702,-2.44044 0.18622,-3.64597 0.66324,-14.27577 -0.99171,-28.56468 -4.9005,-42.31091 -1.71341,-5.93951 -3.87923,-11.73906 -6.47846,-17.34777 -8.8209,-19.01394 -19.43538,-28.77574 -19.43538,-28.77574 -7.95208,-3.99232 -15.65654,-8.45986 -23.07156,-13.37837 v 0.098 c -36.3323,1.58777 -57.42406,-17.75941 -67.28386,-30.49091 -3.49214,-4.50651 -10.29787,-4.50651 -13.79001,0 -14.27607,18.70521 -36.26288,29.92931 -59.7861,30.52032 -1.09771,0 -2.21502,0.0588 -3.34214,0.0588 -1.37214,0 -2.76388,-0.0294 -4.17523,-0.0882 -7.37109,4.87796 -15.02615,9.3126 -22.92453,13.28036 0,0 -9.04633,8.31125 -17.36738,24.5025 v 0 c -3.67549,7.15761 -6.63032,14.66288 -8.8209,22.40509 -3.63675,13.07163 -5.24325,26.62449 -4.76328,40.1841 0.0849,3.15592 0.28749,6.40005 0.60766,9.73239 0.098,0.9801 0.19602,1.91119 0.30383,2.88149 1.21248,10.29671 3.34121,20.46472 6.36085,30.3831 l 0.0588,0.20582 c 0,0 21.88563,73.71332 -18.05345,102.9105 -13.41808,10.39272 -44.269606,73.97187 -32.781598,92.59516 -7.533847,-7.29113 -22.817033,-5.92064 -29.376118,-14.09975 -2.829141,-34.8107 15.741385,-75.67646 20.983724,-80.56342 -15.936426,-42.59514 0.578259,-81.48551 12.016026,-101.09731 2.651954,-4.66133 5.635897,-9.12578 8.928711,-13.35877 -12.261051,-67.74451 18.043645,-102.58706 18.043645,-102.58706 -4.26343,-33.3234 14.93672,-77.01626 14.93672,-77.01626 33.16659,-83.769155 112.36847,-76.898654 125.53121,-75.134474 l 0.65667,0.08821 0.51945,0.07841 c 8.47787,-1.303533 92.31562,-11.878812 126.72693,74.967854 0,0 19.19036,43.70266 14.93673,77.01626 0,0 30.26548,34.84255 17.99463,102.54786 2.79496,3.57651 5.35826,7.32815 7.67419,11.23195 11.40836,18.85712 29.81464,59.04122 13.29015,103.22413 5.45051,5.0868 32.41783,44.35379 30.65141,86.71685 z"
     id="path337"
     style="fill:#9e4830;stroke-width:0.9801" />
</svg>
