<?xml version="1.0" encoding="UTF-8" standalone="no"?>
<svg viewBox="0 0 512 512" version="1.1" id="svg76" xmlns="http://www.w3.org/2000/svg"
   xmlns:svg="http://www.w3.org/2000/svg" xmlns:rdf="http://www.w3.org/1999/02/22-rdf-syntax-ns#"
   xmlns:cc="http://creativecommons.org/ns#" xmlns:dc="http://purl.org/dc/elements/1.1/">
   <defs id="defs4">
      <style id="style2">
         .skinPrimary {
            fill: #fcca92;
         }

         .skinShadowed {
            fill: #daa25d;
         }





         .leftInnerEar {
            fill: #bc9267;
         }
      </style>
   </defs>
   <title id="title6">Avatar Users2</title>
   <g id="Icons">
      <path class="skinPrimary"
         d="m 398.76064,515.87019 c -108.43239,0 -178.90195,2.05071 -286.35832,0.39196 0.46963,-0.68806 -1.32032,-3.63573 -0.83978,-4.31287 1.09218,-1.43075 2.1079,-2.87241 3.20008,-4.28133 0.54608,-0.69899 1.09217,-1.38706 1.64917,-2.09698 1.57273,-1.97682 3.22193,-3.90997 4.91479,-5.82128 l 0.52425,-0.6007 1.58365,-1.72562 1.8567,-1.96591 c 0.62253,-0.64439 1.26693,-1.2997 1.90037,-1.93315 0.63346,-0.63347 1.28877,-1.28878 1.955,-1.92224 0.66622,-0.63345 1.31061,-1.26692 1.98776,-1.88946 1.33973,-1.25235 2.7086,-2.4756 4.10657,-3.6697 l 1.86761,-1.58366 c 0.7973,-0.66622 1.61643,-1.33245 2.42463,-1.97682 0.80822,-0.64439 1.47445,-1.16864 2.18435,-1.73656 0.70991,-0.56793 1.35431,-1.02666 2.04237,-1.53996 0.96111,-0.72084 1.95498,-1.43076 2.93796,-2.12974 0.58976,-0.40411 1.16862,-0.81914 1.76931,-1.22325 0.6007,-0.4041 1.32153,-0.90649 1.99868,-1.35429 l 1.69287,-1.09217 c 0.44778,-0.2949 0.9065,-0.58979 1.37613,-0.87374 v 0 l 1.98776,-1.22323 2.05329,-1.22325 c 0.4587,-0.28395 0.95019,-0.55701 1.41983,-0.81913 0.84097,-0.49148 1.69286,-0.96111 2.54477,-1.44167 1.94407,-1.07032 3.92818,-2.10789 5.95234,-3.11269 1.01937,-0.51696 2.04601,-1.01937 3.07993,-1.50719 2.72216,-1.16301 5.52108,-2.13735 8.37698,-2.91611 v 0 h 0.13106 c 13.259,-3.90998 34.7639,-8.9449 39.71145,-14.66791 7.01176,-8.11484 3.76799,-22.68445 3.76799,-33.22392 0,-2.23896 0,-4.24856 -0.0764,-6.07249 v -0.50242 0 c -0.52424,-21.84347 -1.16548,-27.5474 0.57551,-55.43819 -3.42502,-30.76013 15.42997,-44.06937 31.33226,-6.96403 l 1.85985,4.33966 c 5.10362,11.90841 32.58196,6.42679 36.45917,10.06374 3.5168,3.27652 3.4731,37.36106 2.55568,45.74895 -0.42738,10.46883 -2.3726,21.02888 -1.55087,31.92425 6.78239,17.39834 21.41752,17.15806 38.46637,25.12 0.90649,0.41503 1.80207,0.8519 2.69766,1.27785 3.56777,1.72564 7.01177,3.52409 10.33196,5.39534 0.45872,0.26213 0.91743,0.51333 1.36523,0.78637 l 1.35429,0.78636 c 0.56793,0.32765 1.09218,0.66622 1.68194,1.00481 l 0.72085,0.42594 c 1.01571,0.61161 2.00959,1.23415 3.00347,1.86762 0.40411,0.25121 0.79728,0.51333 1.20139,0.78636 0.64439,0.4041 1.26693,0.81913 1.88946,1.23416 0.91743,0.61162 1.83486,1.23415 2.73044,1.8567 l 0.86282,0.60068 0.46964,0.33859 0.25119,0.18566 0.22935,0.15292 c 0.5461,0.40409 1.09218,0.79727 1.63827,1.20138 l 0.53518,0.4041 0.6553,0.48056 c 0.56792,0.42595 1.09217,0.8519 1.69287,1.28876 0.88464,0.67715 1.74746,1.3543 2.59936,2.0533 3.41487,2.75955 6.66956,5.6174 9.76404,8.57355 0.76453,0.73176 1.52903,1.47445 2.27172,2.18435 0.74268,0.70991 1.22324,1.23416 1.81301,1.83487 0.22935,0.2512 0.45871,0.49148 0.69899,0.72082 0.63347,0.66623 1.256,1.33245 1.86762,2.00961 0.61162,0.67715 1.23416,1.34337 1.82393,2.02052 l 0.67715,0.76452 1.5072,1.73656 0.34949,0.42594 c 0.6007,0.699 1.19048,1.41984 1.78025,2.18435 0.58977,0.76452 1.29967,1.61643 1.93314,2.42462 0.63346,0.80821 1.26693,1.63828 1.86762,2.4574 1.58366,1.83485 10.1129,5.78853 7.71985,5.78853 z"
         id="path19" style="stroke-width:1.09218" />
      <path class="skinPrimary"
         d="m 373.54714,202.42806 v 79.0577 c 0,58.97571 -46.94541,77.86096 -81.15721,107.8632 a 52.656142,52.656142 0 0 1 -70.15571,0 C 188.02242,359.34672 141.077,340.46147 141.077,281.48576 v -79.0577 c 0,-57.99944 43.20827,-105.30179 97.31309,-107.63226 1.38569,-0.0734 2.79237,-0.10498 4.19905,-0.10498 h 29.39338 c 56.06787,0 101.56462,48.23664 101.56462,107.73724 z"
         id="path21" style="stroke-width:1.04976" />
      <path class="skinShadowed"
         d="m 187.99094,281.48576 v -79.0577 c 0,-56.45629 40.94078,-102.79285 93.03005,-107.34883 -2.79238,-0.26244 -5.61624,-0.37791 -8.48209,-0.37791 h -29.39338 c -56.06788,0 -101.51214,48.28912 -101.51214,107.72674 v 39.13518 a 23.262762,23.262762 0 1 0 0,46.51503 h 0.22045 c 3.36973,53.84237 48.01618,72.43369 80.92627,101.27069 a 52.48818,52.48818 0 0 0 58.26188,7.94671 53.905361,53.905361 0 0 1 -11.88332,-7.94671 c -34.2433,-29.99174 -81.16772,-48.88749 -81.16772,-107.8632 z"
         id="path23" style="stroke-width:1.04976" />
      <circle class="skinPrimary" cx="374.06149" cy="264.8262" r="23.262762" id="circle25"
         style="stroke-width:1.04976" />
      <rect class="skinShadowed" x="240.37413" y="288.07846" width="33.791889" height="12.807116" rx="5.8681788"
         id="rect35" style="stroke-width:1.04976" />
      <path class="leftInnerEar" d="m 142.27373,255.5251 a 9.258915,9.258915 0 0 0 0,18.50733 z" id="path41"
         style="stroke-width:1.04976" />
      <path class="skinShadowed" d="m 374.07203,274.07443 a 9.258915,9.258915 0 0 0 0,-18.50734 z" id="path43"
         style="stroke-width:1.04976" />
   </g>
   <metadata id="metadata913">
      <rdf:RDF>
         <cc:Work rdf:about="">
            <dc:title>Avatar Users2</dc:title>
         </cc:Work>
      </rdf:RDF>
   </metadata>
   <path class="hairMediumShade"
      d="m 380.49058,158.44461 c -4.55746,-20.66051 -19.602,-59.472474 -68.86182,-76.173378 a 55.022814,55.022814 0 0 0 0.58806,-7.987815 54.228933,54.228933 0 1 0 -108.44807,0 55.8657,55.8657 0 0 0 0.53906,7.625178 C 154.1953,98.452683 138.97434,137.67629 134.37767,158.44461 a 63.7065,63.7065 0 0 0 -0.9801,21.5622 l 7.64478,61.7463 c 18.6219,-7.17433 32.56873,-44.18291 38.13569,-61.24645 a 9.11493,9.11493 0 0 1 11.32996,-5.8806 c 43.66346,13.08433 88.29721,13.16274 133.90126,-0.10781 a 9.105129,9.105129 0 0 1 11.24175,5.8806 c 5.54737,17.02434 19.54319,54.15052 38.16509,61.33466 l 7.63498,-61.7463 a 63.7065,63.7065 0 0 0 -0.9605,-21.5426 z"
      id="path926" style="fill:#f6c752;stroke-width:0.9801" />
   <path class="hairLightShade"
      d="m 323.64478,102.92194 c 1.10752,12.63349 -0.16661,30.93196 -13.06473,44.71217 a 3.23433,3.23433 0 0 0 2.55806,5.45915 c 8.54647,-0.59786 21.08195,-2.37184 28.00146,-7.55657 a 3.244131,3.244131 0 0 1 5.00831,1.34274 c 1.74458,4.51826 3.9204,11.86901 2.9403,18.86692 a 3.23433,3.23433 0 0 0 5.74339,2.37185 c 6.18443,-7.55658 11.37896,-21.03295 3.66557,-43.52625 a 3.224529,3.224529 0 0 0 -5.65518,-0.85268 l -1.19572,1.62696 a 3.23433,3.23433 0 0 1 -5.26314,-0.0784 l -16.89692,-24.50251 a 3.224529,3.224529 0 0 0 -5.8414,2.13662 z"
      id="path928" style="fill:#ffdd92;stroke-width:0.9801" />
   <path class="hairDarkShade"
      d="m 283.10785,74.322621 c 0,0.421443 0,0.842886 0,1.264329 a 196.02,196.02 0 0 0 -22.82653,-1.264329 h -1.10751 a 199.13672,199.13672 0 0 0 -21.73862,1.136916 c 0,-0.382239 0,-0.754677 0,-1.136916 a 22.875534,22.875534 0 0 1 45.74127,0 z"
      id="path930" style="fill:#dbad49;stroke-width:0.9801" />
</svg>