<?xml version="1.0" encoding="UTF-8" standalone="no"?>
<svg viewBox="0 0 512 512" version="1.1" id="svg76" xmlns="http://www.w3.org/2000/svg"
   xmlns:svg="http://www.w3.org/2000/svg" xmlns:rdf="http://www.w3.org/1999/02/22-rdf-syntax-ns#"
   xmlns:cc="http://creativecommons.org/ns#" xmlns:dc="http://purl.org/dc/elements/1.1/">
   <defs id="defs4">
      <style id="style2">
         .skinPrimary {
            fill: #fcca92;
         }

         .skinShadowed {
            fill: #daa25d;
         }





         .leftInnerEar {
            fill: #bc9267;
         }
      </style>
   </defs>
   <title id="title6">Avatar Users2</title>
   <g id="Icons">
      <path class="cls-3"
         d="M 392.04265,197.08385 260.34087,185.20814 v -0.26492 l -1.49819,0.13702 -1.49815,-0.13702 v 0.26492 l -131.71092,11.87571 c 0,0 -38.870157,52.07051 -23.63269,87.11302 l 12.1041,-15.84039 c 0,0 -1.59866,35.18866 11.52859,52.44502 l 4.87819,-21.92442 c 0,0 12.73443,63.46206 30.66678,76.44313 l 6.50423,-8.53224 c 0,0 15.00907,25.9987 32.94144,37.65517 l 9.85685,-11.87572 46.86343,38.97978 v 2.48478 l 1.49815,-1.24239 1.49819,1.24239 v -2.48478 l 46.85429,-38.97978 9.85685,11.87572 c 17.93237,-11.65647 32.94144,-37.65517 32.94144,-37.65517 l 6.51338,8.53223 c 17.9232,-12.98106 30.65763,-76.44312 30.65763,-76.44312 l 4.87819,21.92442 c 13.13638,-17.25636 11.52859,-52.44503 11.52859,-52.44503 l 12.1041,15.8404 c 15.23747,-35.04252 -23.63269,-87.11302 -23.63269,-87.11302 z"
         id="path6981" style="fill:#a65c3b;stroke-width:0.913517" />
      <path class="skinPrimary"
         d="m 398.76064,515.87019 c -108.43239,0 -178.90195,2.05071 -286.35832,0.39196 0.46963,-0.68806 -1.32032,-3.63573 -0.83978,-4.31287 1.09218,-1.43075 2.1079,-2.87241 3.20008,-4.28133 0.54608,-0.69899 1.09217,-1.38706 1.64917,-2.09698 1.57273,-1.97682 3.22193,-3.90997 4.91479,-5.82128 l 0.52425,-0.6007 1.58365,-1.72562 1.8567,-1.96591 c 0.62253,-0.64439 1.26693,-1.2997 1.90037,-1.93315 0.63346,-0.63347 1.28877,-1.28878 1.955,-1.92224 0.66622,-0.63345 1.31061,-1.26692 1.98776,-1.88946 1.33973,-1.25235 2.7086,-2.4756 4.10657,-3.6697 l 1.86761,-1.58366 c 0.7973,-0.66622 1.61643,-1.33245 2.42463,-1.97682 0.80822,-0.64439 1.47445,-1.16864 2.18435,-1.73656 0.70991,-0.56793 1.35431,-1.02666 2.04237,-1.53996 0.96111,-0.72084 1.95498,-1.43076 2.93796,-2.12974 0.58976,-0.40411 1.16862,-0.81914 1.76931,-1.22325 0.6007,-0.4041 1.32153,-0.90649 1.99868,-1.35429 l 1.69287,-1.09217 c 0.44778,-0.2949 0.9065,-0.58979 1.37613,-0.87374 v 0 l 1.98776,-1.22323 2.05329,-1.22325 c 0.4587,-0.28395 0.95019,-0.55701 1.41983,-0.81913 0.84097,-0.49148 1.69286,-0.96111 2.54477,-1.44167 1.94407,-1.07032 3.92818,-2.10789 5.95234,-3.11269 1.01937,-0.51696 2.04601,-1.01937 3.07993,-1.50719 2.72216,-1.16301 5.52108,-2.13735 8.37698,-2.91611 v 0 h 0.13106 c 13.259,-3.90998 34.7639,-8.9449 39.71145,-14.66791 7.01176,-8.11484 3.76799,-22.68445 3.76799,-33.22392 0,-2.23896 0,-4.24856 -0.0764,-6.07249 v -0.50242 0 c -0.52424,-21.84347 -1.16548,-27.5474 0.57551,-55.43819 -3.42502,-30.76013 15.42997,-44.06937 31.33226,-6.96403 l 1.85985,4.33966 c 5.10362,11.90841 32.58196,6.42679 36.45917,10.06374 3.5168,3.27652 3.4731,37.36106 2.55568,45.74895 -0.42738,10.46883 -2.3726,21.02888 -1.55087,31.92425 6.78239,17.39834 21.41752,17.15806 38.46637,25.12 0.90649,0.41503 1.80207,0.8519 2.69766,1.27785 3.56777,1.72564 7.01177,3.52409 10.33196,5.39534 0.45872,0.26213 0.91743,0.51333 1.36523,0.78637 l 1.35429,0.78636 c 0.56793,0.32765 1.09218,0.66622 1.68194,1.00481 l 0.72085,0.42594 c 1.01571,0.61161 2.00959,1.23415 3.00347,1.86762 0.40411,0.25121 0.79728,0.51333 1.20139,0.78636 0.64439,0.4041 1.26693,0.81913 1.88946,1.23416 0.91743,0.61162 1.83486,1.23415 2.73044,1.8567 l 0.86282,0.60068 0.46964,0.33859 0.25119,0.18566 0.22935,0.15292 c 0.5461,0.40409 1.09218,0.79727 1.63827,1.20138 l 0.53518,0.4041 0.6553,0.48056 c 0.56792,0.42595 1.09217,0.8519 1.69287,1.28876 0.88464,0.67715 1.74746,1.3543 2.59936,2.0533 3.41487,2.75955 6.66956,5.6174 9.76404,8.57355 0.76453,0.73176 1.52903,1.47445 2.27172,2.18435 0.74268,0.70991 1.22324,1.23416 1.81301,1.83487 0.22935,0.2512 0.45871,0.49148 0.69899,0.72082 0.63347,0.66623 1.256,1.33245 1.86762,2.00961 0.61162,0.67715 1.23416,1.34337 1.82393,2.02052 l 0.67715,0.76452 1.5072,1.73656 0.34949,0.42594 c 0.6007,0.699 1.19048,1.41984 1.78025,2.18435 0.58977,0.76452 1.29967,1.61643 1.93314,2.42462 0.63346,0.80821 1.26693,1.63828 1.86762,2.4574 1.58366,1.83485 10.1129,5.78853 7.71985,5.78853 z"
         id="path19" style="stroke-width:1.09218" />
      <path class="skinPrimary"
         d="m 373.54714,202.42806 v 79.0577 c 0,58.97571 -46.94541,77.86096 -81.15721,107.8632 a 52.656142,52.656142 0 0 1 -70.15571,0 C 188.02242,359.34672 141.077,340.46147 141.077,281.48576 v -79.0577 c 0,-57.99944 43.20827,-105.30179 97.31309,-107.63226 1.38569,-0.0734 2.79237,-0.10498 4.19905,-0.10498 h 29.39338 c 56.06787,0 101.56462,48.23664 101.56462,107.73724 z"
         id="path21" style="stroke-width:1.04976" />
      <path class="skinShadowed"
         d="m 187.99094,281.48576 v -79.0577 c 0,-56.45629 40.94078,-102.79285 93.03005,-107.34883 -2.79238,-0.26244 -5.61624,-0.37791 -8.48209,-0.37791 h -29.39338 c -56.06788,0 -101.51214,48.28912 -101.51214,107.72674 v 39.13518 a 23.262762,23.262762 0 1 0 0,46.51503 h 0.22045 c 3.36973,53.84237 48.01618,72.43369 80.92627,101.27069 a 52.48818,52.48818 0 0 0 58.26188,7.94671 53.905361,53.905361 0 0 1 -11.88332,-7.94671 c -34.2433,-29.99174 -81.16772,-48.88749 -81.16772,-107.8632 z"
         id="path23" style="stroke-width:1.04976" />
      <circle class="skinPrimary" cx="374.06149" cy="264.8262" r="23.262762" id="circle25"
         style="stroke-width:1.04976" />
      <rect class="skinShadowed" x="240.37413" y="288.07846" width="33.791889" height="12.807116" rx="5.8681788"
         id="rect35" style="stroke-width:1.04976" />
      <path class="leftInnerEar" d="m 142.27373,255.5251 a 9.258915,9.258915 0 0 0 0,18.50733 z" id="path41"
         style="stroke-width:1.04976" />
      <path class="skinShadowed" d="m 374.07203,274.07443 a 9.258915,9.258915 0 0 0 0,-18.50734 z" id="path43"
         style="stroke-width:1.04976" />
   </g>
   <metadata id="metadata913">
      <rdf:RDF>
         <cc:Work rdf:about="">
            <dc:title>Avatar Users2</dc:title>
         </cc:Work>
      </rdf:RDF>
   </metadata>
   <path class="cls-3"
      d="M 385.34657,135.43972 C 370.19131,109.63284 334.0343,68.150021 259.12586,71.329059 184.21747,68.150021 148.06047,109.63284 132.89606,135.43972 a 67.983952,67.983952 0 0 0 -9.31787,34.46699 v 21.38545 a 68.513793,68.513793 0 0 0 5.07002,25.8434 l 8.71496,21.3489 5.947,44.76234 c -0.17357,-40.75199 20.09738,-61.93647 27.40552,-68.21234 a 23.751448,23.751448 0 0 1 4.48536,-3.03286 c 46.69901,-24.31784 69.3451,-47.61253 78.25191,-58.54733 a 5.7551588,5.7551588 0 0 1 8.94333,0 c 8.90679,10.96221 31.55287,34.22949 78.25189,58.54733 a 23.751448,23.751448 0 0 1 4.48536,3.03286 c 7.26246,6.27587 27.55167,27.46035 27.40552,68.21234 l 4.76856,-35.92862 12.28679,-30.18261 a 68.321954,68.321954 0 0 0 5.07917,-25.84341 v -21.38545 a 68.075305,68.075305 0 0 0 -9.32701,-34.46699 z"
      id="path7009" style="fill:#a65c3b;stroke-width:0.913517" />
   <path class="cls-13"
      d="m 325.11838,108.07073 c 1.07793,12.27769 -0.16444,30.07299 -12.6979,43.47429 a 3.1424994,3.1424994 0 0 0 2.4939,5.29841 c 8.30388,-0.58467 20.4902,-2.3112 27.21369,-7.30814 a 3.1516344,3.1516344 0 0 1 4.86904,1.30634 c 1.69001,4.39401 3.78196,11.52858 2.88672,18.33427 a 3.1424994,3.1424994 0 0 0 5.5816,2.31122 c 6.01094,-7.30814 11.05355,-20.44453 3.56271,-42.31413 a 3.1424994,3.1424994 0 0 0 -5.48112,-0.8313 l -1.16015,1.58038 a 3.1333642,3.1333642 0 0 1 -5.11571,-0.0732 l -16.4433,-23.75146 a 3.1333642,3.1333642 0 0 0 -5.70948,1.97319 z"
      id="path7029" style="fill:#b7694b;stroke-width:0.913517" />
</svg>