<?xml version="1.0" encoding="UTF-8" standalone="no"?>
<svg viewBox="0 0 512 512" version="1.1" id="svg76" xmlns="http://www.w3.org/2000/svg"
   xmlns:svg="http://www.w3.org/2000/svg" xmlns:rdf="http://www.w3.org/1999/02/22-rdf-syntax-ns#"
   xmlns:cc="http://creativecommons.org/ns#" xmlns:dc="http://purl.org/dc/elements/1.1/">
   <defs id="defs4">
      <style id="style2">
         .skinPrimary {
            fill: #fcca92;
         }

         .skinShadowed {
            fill: #daa25d;
         }





         .leftInnerEar {
            fill: #bc9267;
         }
      </style>
   </defs>
   <title id="title6">Avatar Users2</title>
   <g id="Icons">
      <path class="skinPrimary"
         d="m 398.76064,515.87019 c -108.43239,0 -178.90195,2.05071 -286.35832,0.39196 0.46963,-0.68806 -1.32032,-3.63573 -0.83978,-4.31287 1.09218,-1.43075 2.1079,-2.87241 3.20008,-4.28133 0.54608,-0.69899 1.09217,-1.38706 1.64917,-2.09698 1.57273,-1.97682 3.22193,-3.90997 4.91479,-5.82128 l 0.52425,-0.6007 1.58365,-1.72562 1.8567,-1.96591 c 0.62253,-0.64439 1.26693,-1.2997 1.90037,-1.93315 0.63346,-0.63347 1.28877,-1.28878 1.955,-1.92224 0.66622,-0.63345 1.31061,-1.26692 1.98776,-1.88946 1.33973,-1.25235 2.7086,-2.4756 4.10657,-3.6697 l 1.86761,-1.58366 c 0.7973,-0.66622 1.61643,-1.33245 2.42463,-1.97682 0.80822,-0.64439 1.47445,-1.16864 2.18435,-1.73656 0.70991,-0.56793 1.35431,-1.02666 2.04237,-1.53996 0.96111,-0.72084 1.95498,-1.43076 2.93796,-2.12974 0.58976,-0.40411 1.16862,-0.81914 1.76931,-1.22325 0.6007,-0.4041 1.32153,-0.90649 1.99868,-1.35429 l 1.69287,-1.09217 c 0.44778,-0.2949 0.9065,-0.58979 1.37613,-0.87374 v 0 l 1.98776,-1.22323 2.05329,-1.22325 c 0.4587,-0.28395 0.95019,-0.55701 1.41983,-0.81913 0.84097,-0.49148 1.69286,-0.96111 2.54477,-1.44167 1.94407,-1.07032 3.92818,-2.10789 5.95234,-3.11269 1.01937,-0.51696 2.04601,-1.01937 3.07993,-1.50719 2.72216,-1.16301 5.52108,-2.13735 8.37698,-2.91611 v 0 h 0.13106 c 13.259,-3.90998 34.7639,-8.9449 39.71145,-14.66791 7.01176,-8.11484 3.76799,-22.68445 3.76799,-33.22392 0,-2.23896 0,-4.24856 -0.0764,-6.07249 v -0.50242 0 c -0.52424,-21.84347 -1.16548,-27.5474 0.57551,-55.43819 -3.42502,-30.76013 15.42997,-44.06937 31.33226,-6.96403 l 1.85985,4.33966 c 5.10362,11.90841 32.58196,6.42679 36.45917,10.06374 3.5168,3.27652 3.4731,37.36106 2.55568,45.74895 -0.42738,10.46883 -2.3726,21.02888 -1.55087,31.92425 6.78239,17.39834 21.41752,17.15806 38.46637,25.12 0.90649,0.41503 1.80207,0.8519 2.69766,1.27785 3.56777,1.72564 7.01177,3.52409 10.33196,5.39534 0.45872,0.26213 0.91743,0.51333 1.36523,0.78637 l 1.35429,0.78636 c 0.56793,0.32765 1.09218,0.66622 1.68194,1.00481 l 0.72085,0.42594 c 1.01571,0.61161 2.00959,1.23415 3.00347,1.86762 0.40411,0.25121 0.79728,0.51333 1.20139,0.78636 0.64439,0.4041 1.26693,0.81913 1.88946,1.23416 0.91743,0.61162 1.83486,1.23415 2.73044,1.8567 l 0.86282,0.60068 0.46964,0.33859 0.25119,0.18566 0.22935,0.15292 c 0.5461,0.40409 1.09218,0.79727 1.63827,1.20138 l 0.53518,0.4041 0.6553,0.48056 c 0.56792,0.42595 1.09217,0.8519 1.69287,1.28876 0.88464,0.67715 1.74746,1.3543 2.59936,2.0533 3.41487,2.75955 6.66956,5.6174 9.76404,8.57355 0.76453,0.73176 1.52903,1.47445 2.27172,2.18435 0.74268,0.70991 1.22324,1.23416 1.81301,1.83487 0.22935,0.2512 0.45871,0.49148 0.69899,0.72082 0.63347,0.66623 1.256,1.33245 1.86762,2.00961 0.61162,0.67715 1.23416,1.34337 1.82393,2.02052 l 0.67715,0.76452 1.5072,1.73656 0.34949,0.42594 c 0.6007,0.699 1.19048,1.41984 1.78025,2.18435 0.58977,0.76452 1.29967,1.61643 1.93314,2.42462 0.63346,0.80821 1.26693,1.63828 1.86762,2.4574 1.58366,1.83485 10.1129,5.78853 7.71985,5.78853 z"
         id="path19" style="stroke-width:1.09218" />
      <path class="skinPrimary"
         d="m 373.54714,202.42806 v 79.0577 c 0,58.97571 -46.94541,77.86096 -81.15721,107.8632 a 52.656142,52.656142 0 0 1 -70.15571,0 C 188.02242,359.34672 141.077,340.46147 141.077,281.48576 v -79.0577 c 0,-57.99944 43.20827,-105.30179 97.31309,-107.63226 1.38569,-0.0734 2.79237,-0.10498 4.19905,-0.10498 h 29.39338 c 56.06787,0 101.56462,48.23664 101.56462,107.73724 z"
         id="path21" style="stroke-width:1.04976" />
      <path class="skinShadowed"
         d="m 187.99094,281.48576 v -79.0577 c 0,-56.45629 40.94078,-102.79285 93.03005,-107.34883 -2.79238,-0.26244 -5.61624,-0.37791 -8.48209,-0.37791 h -29.39338 c -56.06788,0 -101.51214,48.28912 -101.51214,107.72674 v 39.13518 a 23.262762,23.262762 0 1 0 0,46.51503 h 0.22045 c 3.36973,53.84237 48.01618,72.43369 80.92627,101.27069 a 52.48818,52.48818 0 0 0 58.26188,7.94671 53.905361,53.905361 0 0 1 -11.88332,-7.94671 c -34.2433,-29.99174 -81.16772,-48.88749 -81.16772,-107.8632 z"
         id="path23" style="stroke-width:1.04976" />
      <circle class="skinPrimary" cx="374.06149" cy="264.8262" r="23.262762" id="circle25"
         style="stroke-width:1.04976" />
      <rect class="skinShadowed" x="240.37413" y="288.07846" width="33.791889" height="12.807116" rx="5.8681788"
         id="rect35" style="stroke-width:1.04976" />
      <path class="leftInnerEar" d="m 142.27373,255.5251 a 9.258915,9.258915 0 0 0 0,18.50733 z" id="path41"
         style="stroke-width:1.04976" />
      <path class="skinShadowed" d="m 374.07203,274.07443 a 9.258915,9.258915 0 0 0 0,-18.50734 z" id="path43"
         style="stroke-width:1.04976" />
   </g>
   <metadata id="metadata913">
      <rdf:RDF>
         <cc:Work rdf:about="">
            <dc:title>Avatar Users2</dc:title>
         </cc:Work>
      </rdf:RDF>
   </metadata>
   <path class="hairMediumShade"
      d="m 224.91385,66.304957 c 0,17.26185 13.981,45.932183 31.25216,45.932183 17.27116,0 31.25216,-28.670333 31.25216,-45.932183 a 31.252162,31.252162 0 1 0 -62.50432,0 z"
      id="path8054" style="fill:#9e4830;stroke-width:0.932065" />
   <rect class="" x="223.66489" y="85.440239" width="65.011566" height="20.095329" rx="10.047665" id="rect8056"
      style="fill:#32314b;stroke-width:0.932065" />
   <path class="hairMediumShade"
      d="m 375.00433,204.58617 v 33.2934 l -0.41942,10.53232 -24.36419,-64.60145 c 0,0 -4.25954,-41.46759 -38.91373,-48.32758 -12.33121,-2.44202 -24.98867,1.0439 -34.98974,8.64955 a 36.95639,36.95639 0 0 1 -20.90622,7.88529 v 0 h -1.25827 v 0 a 36.965711,36.965711 0 0 1 -20.91557,-7.91324 c -10.00104,-7.59634 -22.6585,-11.08226 -34.98972,-8.64026 -34.6542,6.8507 -38.91375,48.3276 -38.91375,48.3276 l -17.58806,60.76134 -4.10108,-39.96697 c 0,-60.752 46.40753,-109.983709 103.65499,-109.983709 h 30.06842 c 57.2195,-0.02796 103.63634,49.231709 103.63634,109.983709 z"
      id="path8088" style="fill:#a65c3b;stroke-width:0.932065" />
   <path class="hairLightShade"
      d="m 288.72306,100.13893 c 0.54991,6.29144 -0.0839,15.39772 -6.52446,22.25773 a 1.6124731,1.6124731 0 0 0 1.27693,2.7123 c 4.25022,-0.29825 10.48573,-1.18371 13.93437,-3.72826 a 1.6031524,1.6031524 0 0 1 2.48861,0.67109 20.207176,20.207176 0 0 1 1.48199,9.38591 1.6031524,1.6031524 0 0 0 2.85212,1.17437 c 3.07582,-3.72824 5.66696,-10.46707 1.86413,-21.66118 a 1.6124731,1.6124731 0 0 0 -2.7962,-0.41943 l -0.59651,0.81089 a 1.6124731,1.6124731 0 0 1 -2.61912,0 l -8.38859,-12.172768 a 1.6031524,1.6031524 0 0 0 -2.97327,0.969348 z"
      id="path8100" style="fill:#ba6949;stroke-width:0.932065" />
</svg>