<?xml version="1.0" encoding="UTF-8" standalone="no"?>
<svg
   viewBox="0 0 512 512"
   version="1.1"
   id="svg76"
   xmlns="http://www.w3.org/2000/svg"
   xmlns:svg="http://www.w3.org/2000/svg"
   xmlns:rdf="http://www.w3.org/1999/02/22-rdf-syntax-ns#"
   xmlns:cc="http://creativecommons.org/ns#"
   xmlns:dc="http://purl.org/dc/elements/1.1/">
  <defs
     id="defs4">
    <style
       id="style2">
         .skinPrimary {
            fill: #fcca92;
         }

         .skinShadowed {
            fill: #daa25d;
         }





         .leftInnerEar {
            fill: #bc9267;
         }

         .hairLightShade {
            fill: #ee05da;
         }

         .hairDarkShade {
            fill: #450143;
         }

         .hairMediumShade {
            fill: #71017b;
         }
      </style>
  </defs>
  <title
     id="title6">Avatar Users2</title>
  <metadata
     id="metadata913">
    <rdf:RDF>
      <cc:Work
         rdf:about="">
        <dc:title>Avatar Users2</dc:title>
      </cc:Work>
    </rdf:RDF>
  </metadata>
  <path
     class="cls-8"
     d="m 257.70788,321.46372 c -17.4,-2.82 -32.55,8.47 -32.55,8.47 0,9 14.57,17.72 32.55,17.72 v 0 c 18,0 32.54,-8.73 32.54,-17.72 0,0 -15.15,-11.29 -32.54,-8.47 z"
     id="path293"
     style="fill:#d54545" />
  <path
     class="cls-9"
     d="m 280.85788,330.70372 h -39.38 a 5.89,5.89 0 0 1 2.73,-3.36 49.22,49.22 0 0 1 20.94,-6.28 34.89,34.89 0 0 0 -7.44,0.4 c -17.39,-2.82 -32.55,8.47 -32.55,8.47 0,9 14.57,17.72 32.55,17.72 a 56.26,56.26 0 0 0 7.46,-0.51 c -10.46,-1.44 -19,-5.81 -22.85,-11 a 6,6 0 0 1 -0.87,-1.77 h 39.41 a 1.82,1.82 0 1 0 0,-3.63 z"
     id="path295"
     style="fill:#c11e1e" />
</svg>
