<?xml version="1.0" encoding="UTF-8" standalone="no"?>
<svg
   viewBox="0 0 512 512"
   version="1.1"
   id="svg80"
   xmlns="http://www.w3.org/2000/svg"
   xmlns:svg="http://www.w3.org/2000/svg"
   xmlns:rdf="http://www.w3.org/1999/02/22-rdf-syntax-ns#"
   xmlns:cc="http://creativecommons.org/ns#"
   xmlns:dc="http://purl.org/dc/elements/1.1/">
  <defs
     id="defs4">
    <style
       id="style2">
         .hairDarkShade {
            fill: #a65c3b;
         }



         .cls-6 {
            fill: none;
            stroke-linecap: round;
            stroke-miterlimit: 10;
            stroke-width: 7px;
         }


         .hairMediumShade {
            fill: #bc6a4a;
         }
      </style>
  </defs>
  <title
     id="title6">Avatar Users2</title>
  <g
     id="Icons">
    <path
       class="hairDarkShade"
       d="m 239.54,25.19 h 33.67 c 68.28287,-0.0055 123.64,55.347131 123.64,123.63 l -1.13525,69.2178 -5.03449,-6.81153 -9.57552,-93.65853 -53.85046,-61.871399 -54.98571,30.651882 -44.20079,13.055433 -99.82828,31.787134 -5.03449,82.306 -5.60213,6.81152 L 115.9,148.82 C 114.27393,80.556495 171.25713,25.184477 239.54,25.19 Z"
       id="hairMediumLayer1" />
    <path
       class="cls-6"
       d="M160.63,187s32.91-18.34,61.33,0"
       id="path23" />
    <path
       class="cls-6"
       d="M287.43,187s32.91-18.34,61.32,0"
       id="path25" />
    <path
       class="hairDarkShade"
       d="M392.5,155.17c-33-6.22-58.65-23.58-68.13-49.82a65.63,65.63,0,0,1-3.46-29c-16.64,28.64-48.68,54.71-89.82,69.55-40.19,14.51-80.55,15.23-111.38,4.61C124.1,86.69,173.1,36,233.75,33.38c1.63-.09,3.3-.12,4.95-.12h34.59C337.7,33.26,390.19,87.43,392.5,155.17Z"
       id="path43" />
    <path
       class="hairMediumShade"
       d="M350.88,65.69c-1.93,10.78-7.12,25.73-21,34.31a2.79,2.79,0,0,0,.89,5.12c7.26,1.43,18.1,2.78,25,0a2.8,2.8,0,0,1,3.87,2.25c.43,4.16.57,10.76-1.79,16.39a2.79,2.79,0,0,0,4.25,3.27c6.86-4.9,14.23-15,12.89-35.44a2.8,2.8,0,0,0-4.53-2l-1.36,1.09a2.8,2.8,0,0,1-4.37-1.25l-8.54-24.21A2.79,2.79,0,0,0,350.88,65.69Z"
       id="path9" />
  </g>
  <metadata
     id="metadata1031">
    <rdf:RDF>
      <cc:Work
         rdf:about="">
        <dc:title>Avatar Users2</dc:title>
      </cc:Work>
    </rdf:RDF>
  </metadata>
</svg>
