<?xml version="1.0" encoding="UTF-8" standalone="no"?>
<svg
   viewBox="0 0 512 512"
   version="1.1"
   id="svg76"
   xmlns="http://www.w3.org/2000/svg"
   xmlns:svg="http://www.w3.org/2000/svg"
   xmlns:rdf="http://www.w3.org/1999/02/22-rdf-syntax-ns#"
   xmlns:cc="http://creativecommons.org/ns#"
   xmlns:dc="http://purl.org/dc/elements/1.1/">
  <defs
     id="defs4">
    <style
       id="style2">
         .skinPrimary {
            fill: #fcca92;
         }

         .skinShadowed {
            fill: #daa25d;
         }





         .leftInnerEar {
            fill: #bc9267;
         }

         .hairLightShade {
            fill: #ee05da;
         }

         .hairDarkShade {
            fill: #450143;
         }

         .hairMediumShade {
            fill: #71017b;
         }
      </style>
  </defs>
  <title
     id="title6">Avatar Users2</title>
  <metadata
     id="metadata913">
    <rdf:RDF>
      <cc:Work
         rdf:about="">
        <dc:title>Avatar Users2</dc:title>
      </cc:Work>
    </rdf:RDF>
  </metadata>
  <path
     class="cls-3"
     d="m 290.21377,302.00783 h -61.82389 a 19.866693,19.866693 0 0 0 -19.8667,19.85747 h 34.32611 a 19.820556,19.820556 0 0 0 16.44331,-8.71993 19.820556,19.820556 0 0 0 16.44331,8.71993 h 34.32611 a 19.866693,19.866693 0 0 0 -19.84825,-19.85747 z"
     id="path1838"
     style="fill:#27273d;stroke-width:0.922744" />
  <path
     class="cls-3"
     d="m 240.68084,357.33562 14.22872,21.60144 a 5.1027782,5.1027782 0 0 0 8.48925,0 l 14.50555,-21.60144 A 5.0935507,5.0935507 0 0 0 273.66897,349.4 h -28.73429 a 5.0935507,5.0935507 0 0 0 -4.25384,7.93562 z"
     id="path1840"
     style="fill:#27273d;stroke-width:0.922744" />
</svg>
