<?xml version="1.0" encoding="UTF-8" standalone="no"?>
<svg
   viewBox="0 0 512 512"
   version="1.1"
   id="svg76"
   xmlns="http://www.w3.org/2000/svg"
   xmlns:svg="http://www.w3.org/2000/svg"
   xmlns:rdf="http://www.w3.org/1999/02/22-rdf-syntax-ns#"
   xmlns:cc="http://creativecommons.org/ns#"
   xmlns:dc="http://purl.org/dc/elements/1.1/">
  <defs
     id="defs4">
    <style
       id="style2">
         .skinPrimary {
            fill: #fcca92;
         }

         .skinShadowed {
            fill: #daa25d;
         }





         .leftInnerEar {
            fill: #bc9267;
         }
      </style>
  </defs>
  <title
     id="title6">Avatar Users2</title>
  <metadata
     id="metadata913">
    <rdf:RDF>
      <cc:Work
         rdf:about="">
        <dc:title>Avatar Users2</dc:title>
      </cc:Work>
    </rdf:RDF>
  </metadata>
  <path
     class="cls-7"
     d="m 237.11767,252.82563 v 16.68639 a 18.602689,18.602689 0 0 1 -18.61173,18.60268 h -32.97502 a 18.620768,18.620768 0 0 1 -18.61173,-18.60268 v -16.68639 a 18.611729,18.611729 0 0 1 18.61173,-18.61171 h 32.94791 a 18.295356,18.295356 0 0 1 6.00204,0.99431 18.611729,18.611729 0 0 1 12.6368,17.6174 z"
     id="path1969"
     style="fill:#d2efff;stroke-width:0.903921" />
  <path
     class="cls-8"
     d="m 206.80921,234.21392 -19.81394,53.90078 h -1.46435 a 18.503258,18.503258 0 0 1 -12.53739,-4.86309 l 18.07842,-49.03769 z"
     id="path1971"
     style="fill:#ffffff;stroke-width:0.903921" />
  <path
     class="cls-8"
     d="m 224.50798,235.20823 -19.43429,52.90647 h -10.1872 l 19.82298,-53.90078 h 3.79647 a 18.295356,18.295356 0 0 1 6.00204,0.99431 z"
     id="path1973"
     style="fill:#ffffff;stroke-width:0.903921" />
  <path
     class="cls-7"
     d="m 346.7,252.82563 v 16.68639 a 18.611729,18.611729 0 0 1 -18.61173,18.60268 h -32.94791 a 18.638846,18.638846 0 0 1 -18.62077,-18.60268 v -16.68639 a 18.620768,18.620768 0 0 1 18.62077,-18.61171 h 32.94791 a 18.331514,18.331514 0 0 1 6.00203,0.99431 18.620768,18.620768 0 0 1 12.6097,17.6174 z"
     id="path1975"
     style="fill:#d2efff;stroke-width:0.903921" />
  <path
     class="cls-8"
     d="m 316.39153,234.21392 -19.81394,53.90078 h -1.43723 a 18.503258,18.503258 0 0 1 -12.53739,-4.86309 l 18.03323,-49.03769 z"
     id="path1977"
     style="fill:#ffffff;stroke-width:0.903921" />
  <path
     class="cls-8"
     d="m 334.0903,235.20823 -19.44334,52.90647 h -10.17814 l 19.82299,-53.90078 h 3.79646 a 18.331514,18.331514 0 0 1 6.00203,0.99431 z"
     id="path1979"
     style="fill:#ffffff;stroke-width:0.903921" />
  <rect
     class="cls-5"
     x="166.94632"
     y="234.21391"
     width="70.171371"
     height="51.803707"
     rx="11.036872"
     id="rect1981"
     style="fill:none;stroke:#27273d;stroke-width:6.32744px;stroke-linecap:round;stroke-miterlimit:10" />
  <rect
     class="cls-5"
     x="276.52863"
     y="234.21391"
     width="70.171371"
     height="51.803707"
     rx="11.036872"
     id="rect1983"
     style="fill:none;stroke:#27273d;stroke-width:6.32744px;stroke-linecap:round;stroke-miterlimit:10" />
  <line
     class="cls-5"
     x1="237.11766"
     y1="245.24176"
     x2="276.52863"
     y2="245.24176"
     id="line1985"
     style="fill:none;stroke:#27273d;stroke-width:6.32744px;stroke-linecap:round;stroke-miterlimit:10" />
</svg>
