<?xml version="1.0" encoding="UTF-8" standalone="no"?>
<svg
   viewBox="0 0 512 512"
   version="1.1"
   id="svg76"
   sodipodi:docname="EyewearBase.svg"
   inkscape:version="1.2.1 (9c6d41e, 2022-07-14)"
   xmlns:inkscape="http://www.inkscape.org/namespaces/inkscape"
   xmlns:sodipodi="http://sodipodi.sourceforge.net/DTD/sodipodi-0.dtd"
   xmlns="http://www.w3.org/2000/svg"
   xmlns:svg="http://www.w3.org/2000/svg"
   xmlns:rdf="http://www.w3.org/1999/02/22-rdf-syntax-ns#"
   xmlns:cc="http://creativecommons.org/ns#"
   xmlns:dc="http://purl.org/dc/elements/1.1/">
  <sodipodi:namedview
     id="namedview737"
     pagecolor="#ffffff"
     bordercolor="#000000"
     borderopacity="0.25"
     inkscape:showpageshadow="2"
     inkscape:pageopacity="0.0"
     inkscape:pagecheckerboard="0"
     inkscape:deskcolor="#d1d1d1"
     showgrid="false"
     inkscape:zoom="2"
     inkscape:cx="265.25"
     inkscape:cy="239"
     inkscape:window-width="1390"
     inkscape:window-height="1052"
     inkscape:window-x="623"
     inkscape:window-y="0"
     inkscape:window-maximized="0"
     inkscape:current-layer="svg76" />
  <defs
     id="defs4">
    <style
       id="style2">
         .skinPrimary {
            fill: #fcca92;
         }

         .skinShadowed {
            fill: #daa25d;
         }





         .leftInnerEar {
            fill: #bc9267;
         }
      </style>
  </defs>
  <title
     id="title6">Avatar Users2</title>
  <g
     id="Icons">
    <path
       class="skinPrimary"
       d="m 393.15674,516.24439 c -93.93886,9.3324 -176.31966,12.33721 -277.42103,-1.8056 0.4514,-0.66134 0.9133,-1.3122 1.37518,-1.96306 1.04977,-1.37518 2.02605,-2.76087 3.07581,-4.11507 0.52488,-0.67185 1.04977,-1.3332 1.58514,-2.01555 1.51166,-1.90006 3.09681,-3.75815 4.72394,-5.59524 l 0.50389,-0.57737 1.52216,-1.65862 1.7846,-1.88957 c 0.59836,-0.61936 1.21773,-1.24922 1.82658,-1.85808 0.60886,-0.60887 1.23872,-1.23873 1.87908,-1.84759 0.64035,-0.60886 1.25972,-1.21773 1.91057,-1.81609 1.28771,-1.20373 2.60342,-2.37947 3.94711,-3.52721 l 1.79509,-1.52216 c 0.76634,-0.64035 1.55366,-1.28071 2.33048,-1.90006 0.77683,-0.61937 1.41719,-1.12326 2.09953,-1.66913 0.68234,-0.54587 1.30171,-0.98678 1.96306,-1.48016 0.92379,-0.69285 1.87907,-1.3752 2.82387,-2.04704 0.56686,-0.38842 1.12324,-0.78733 1.70061,-1.17575 0.57737,-0.3884 1.27021,-0.87129 1.92107,-1.3017 l 1.62713,-1.04976 c 0.4304,-0.28344 0.8713,-0.56688 1.3227,-0.83981 v 0 l 1.91057,-1.17573 1.97356,-1.17575 c 0.44089,-0.27293 0.91329,-0.53538 1.36469,-0.78732 0.80832,-0.47239 1.62713,-0.92379 2.44595,-1.38569 1.86858,-1.02876 3.77565,-2.02604 5.72121,-2.99182 0.97978,-0.49688 1.96656,-0.97978 2.96033,-1.44867 2.61645,-1.11784 5.30669,-2.05435 8.05169,-2.80287 v 0 h 0.12597 c 12.74414,-3.75815 33.41398,-8.59756 38.16941,-14.09833 6.73948,-7.79974 3.62168,-21.80359 3.62168,-31.9338 0,-2.15202 0,-4.08358 -0.0734,-5.83669 v -0.4829 0 c -0.50389,-20.99527 -1.12022,-26.47771 0.55316,-53.28547 -3.29202,-29.56567 14.83081,-42.3581 30.11559,-6.6936 l 1.78763,4.17114 c 4.90544,11.44599 31.31676,6.17723 35.04342,9.67295 3.38024,3.14929 3.33824,35.91029 2.45644,43.97247 -0.41078,10.06231 -2.28047,20.2123 -1.49065,30.68459 6.51902,16.72274 20.58586,16.49179 36.97267,24.14456 0.87129,0.39891 1.7321,0.81882 2.59291,1.22823 3.42923,1.65863 6.73949,3.38724 9.93076,5.18583 0.44091,0.25195 0.8818,0.49339 1.31221,0.75583 l 1.30171,0.75583 c 0.54587,0.31493 1.04976,0.64035 1.61663,0.96579 l 0.69285,0.4094 c 0.97627,0.58787 1.93156,1.18623 2.88684,1.7951 0.38842,0.24145 0.76633,0.49339 1.15475,0.75583 0.61936,0.38841 1.21772,0.78732 1.81609,1.18623 0.8818,0.58787 1.7636,1.18623 2.62441,1.7846 l 0.82931,0.57736 0.4514,0.32544 0.24144,0.17845 0.22045,0.14698 c 0.52489,0.3884 1.04977,0.76632 1.57465,1.15473 l 0.51439,0.38841 0.62986,0.4619 c 0.54587,0.40941 1.04976,0.81882 1.62713,1.23872 0.8503,0.65085 1.67961,1.30171 2.49843,1.97356 3.28227,2.6524 6.41057,5.39927 9.38489,8.24064 0.73484,0.70334 1.46966,1.41719 2.18351,2.09952 0.71384,0.68235 1.17573,1.18624 1.74261,1.76362 0.22044,0.24144 0.44089,0.47239 0.67184,0.69283 0.60887,0.64036 1.20723,1.28071 1.7951,1.93157 0.58787,0.65086 1.18623,1.29121 1.75311,1.94206 l 0.65085,0.73484 1.44867,1.66912 0.33593,0.40941 c 0.57737,0.67185 1.14424,1.3647 1.71111,2.09953 0.56688,0.73483 1.24921,1.55365 1.85808,2.33047 0.60886,0.77682 1.21773,1.57465 1.7951,2.36197 1.52216,1.7636 2.86585,3.65317 4.14657,5.56375 z"
       id="path19"
       style="stroke-width:1.04976" />
    <path
       class="skinPrimary"
       d="m 373.54714,202.42806 v 79.0577 c 0,58.97571 -46.94541,77.86096 -81.15721,107.8632 a 52.656142,52.656142 0 0 1 -70.15571,0 C 188.02242,359.34672 141.077,340.46147 141.077,281.48576 v -79.0577 c 0,-57.99944 43.20827,-105.30179 97.31309,-107.63226 1.38569,-0.0734 2.79237,-0.10498 4.19905,-0.10498 h 29.39338 c 56.06787,0 101.56462,48.23664 101.56462,107.73724 z"
       id="path21"
       style="stroke-width:1.04976" />
    <path
       class="skinShadowed"
       d="m 187.99094,281.48576 v -79.0577 c 0,-56.45629 40.94078,-102.79285 93.03005,-107.34883 -2.79238,-0.26244 -5.61624,-0.37791 -8.48209,-0.37791 h -29.39338 c -56.06788,0 -101.51214,48.28912 -101.51214,107.72674 v 39.13518 a 23.262762,23.262762 0 1 0 0,46.51503 h 0.22045 c 3.36973,53.84237 48.01618,72.43369 80.92627,101.27069 a 52.48818,52.48818 0 0 0 58.26188,7.94671 53.905361,53.905361 0 0 1 -11.88332,-7.94671 c -34.2433,-29.99174 -81.16772,-48.88749 -81.16772,-107.8632 z"
       id="path23"
       style="stroke-width:1.04976" />
    <circle
       class="skinPrimary"
       cx="374.06149"
       cy="264.8262"
       r="23.262762"
       id="circle25"
       style="stroke-width:1.04976" />
    <rect
       class="skinShadowed"
       x="240.37413"
       y="288.07846"
       width="33.791889"
       height="12.807116"
       rx="5.8681788"
       id="rect35"
       style="stroke-width:1.04976" />
    <path
       class="leftInnerEar"
       d="m 142.27373,255.5251 a 9.258915,9.258915 0 0 0 0,18.50733 z"
       id="path41"
       style="stroke-width:1.04976" />
    <path
       class="skinShadowed"
       d="m 374.07203,274.07443 a 9.258915,9.258915 0 0 0 0,-18.50734 z"
       id="path43"
       style="stroke-width:1.04976" />
  </g>
  <path
     class="cls-10"
     d="m 397.11,218.5 a 36.65,36.65 0 0 1 -55.85,31.28 37.72,37.72 0 0 1 -7.56,-6.17 36.58,36.58 0 0 1 -9.18,-17.83 37.16,37.16 0 0 1 -0.72,-7.29 36.64,36.64 0 0 1 36.65,-36.64 37.06,37.06 0 0 1 7.28,0.72 36.64,36.64 0 0 1 23.95,16.73 36.17,36.17 0 0 1 4.09,9.37 36.6,36.6 0 0 1 1.34,9.83 z"
     id="path1121"
     style="fill:#bbe4f9" />
  <path
     class="cls-11"
     d="m 385.51,191.78 -51.81,51.81 a 36.58,36.58 0 0 1 -9.18,-17.81 l 43.21,-43.21 a 36.64,36.64 0 0 1 17.78,9.21 z"
     id="path1123"
     style="fill:#e1f2f9" />
  <path
     class="cls-11"
     d="m 395.77,208.68 -45.13,45.1 a 36.42,36.42 0 0 1 -9.38,-4.09 l 50.42,-50.42 a 36.17,36.17 0 0 1 4.09,9.41 z"
     id="path1125"
     style="fill:#e1f2f9" />
  <circle
     class="cls-12"
     cx="360.44998"
     cy="218.5"
     r="36.650002"
     id="circle1127"
     style="fill:none;stroke:#27273d;stroke-width:7px;stroke-linecap:round;stroke-miterlimit:10" />
  <path
     class="cls-10"
     d="m 522.19,218.5 a 36.65,36.65 0 0 1 -55.84,31.28 37.38,37.38 0 0 1 -7.55,-6.17 36.5,36.5 0 0 1 -9.18,-17.83 37.16,37.16 0 0 1 -0.73,-7.29 36.65,36.65 0 0 1 36.66,-36.64 37.06,37.06 0 0 1 7.28,0.72 36.56,36.56 0 0 1 23.94,16.73 35.83,35.83 0 0 1 4.09,9.37 36.6,36.6 0 0 1 1.33,9.83 z"
     id="path1129"
     style="fill:#bbe4f9" />
  <path
     class="cls-11"
     d="m 510.61,191.78 -51.81,51.81 a 36.5,36.5 0 0 1 -9.18,-17.81 l 43.21,-43.21 a 36.69,36.69 0 0 1 17.78,9.21 z"
     id="path1131"
     style="fill:#e1f2f9" />
  <path
     class="cls-11"
     d="m 520.86,208.68 -45.13,45.1 a 36.73,36.73 0 0 1 -9.38,-4.09 l 50.42,-50.42 a 35.83,35.83 0 0 1 4.09,9.41 z"
     id="path1133"
     style="fill:#e1f2f9" />
  <circle
     class="cls-12"
     cx="485.54999"
     cy="218.5"
     r="36.650002"
     id="circle1135"
     style="fill:none;stroke:#27273d;stroke-width:7px;stroke-linecap:round;stroke-miterlimit:10" />
  <path
     class="cls-12"
     d="m 397.11,218.5 c 0,0 20.32,-17.19 51.8,0"
     id="path1137"
     style="fill:none;stroke:#27273d;stroke-width:7px;stroke-linecap:round;stroke-miterlimit:10" />
  <path
     class="cls-5"
     d="m 174.33571,227.86847 c 0,0 28.74489,-16.01287 53.56579,0"
     id="path263"
     style="fill:none;stroke:#27273d;stroke-width:6.52446px;stroke-linecap:round;stroke-miterlimit:10" />
  <path
     class="cls-5"
     d="m 285.0837,227.86847 c 0,0 28.7449,-16.01287 53.56579,0"
     id="path267"
     style="fill:none;stroke:#27273d;stroke-width:6.52446px;stroke-linecap:round;stroke-miterlimit:10" />
  <metadata
     id="metadata913">
    <rdf:RDF>
      <cc:Work
         rdf:about="">
        <dc:title>Avatar Users2</dc:title>
      </cc:Work>
    </rdf:RDF>
  </metadata>
  <ellipse
     class="eye"
     cx="201.15401"
     cy="256.00775"
     rx="9.5257082"
     ry="13.710681"
     id="ellipse265"
     style="fill:#27273d;stroke-width:0.932065" />
  <ellipse
     class="eye"
     cx="311.91132"
     cy="256.00775"
     rx="9.5257082"
     ry="13.710681"
     id="ellipse269"
     style="fill:#27273d;stroke-width:0.932065" />
  <path
     class="eyelid"
     d="m 183.83623,245.90414 c 0,0 16.45095,-10.39252 34.64486,0"
     id="path273"
     style="fill:none;stroke:#27273d;stroke-width:6.52446px;stroke-linecap:round;stroke-miterlimit:10" />
  <path
     class="eyelid"
     d="m 294.62151,245.90414 c 0,0 16.46028,-10.39252 34.64488,0"
     id="path275"
     style="fill:none;stroke:#27273d;stroke-width:6.52446px;stroke-linecap:round;stroke-miterlimit:10" />
</svg>
