<?xml version="1.0" encoding="UTF-8" standalone="no"?>
<svg
   viewBox="0 0 512 512"
   version="1.1"
   id="svg76"
   xmlns="http://www.w3.org/2000/svg"
   xmlns:svg="http://www.w3.org/2000/svg"
   xmlns:rdf="http://www.w3.org/1999/02/22-rdf-syntax-ns#"
   xmlns:cc="http://creativecommons.org/ns#"
   xmlns:dc="http://purl.org/dc/elements/1.1/">
  <defs
     id="defs4">
    <style
       id="style2">
         .skinPrimary {
            fill: #fcca92;
         }

         .skinShadowed {
            fill: #daa25d;
         }





         .leftInnerEar {
            fill: #bc9267;
         }
      </style>
  </defs>
  <title
     id="title6">Avatar Users2</title>
  <metadata
     id="metadata913">
    <rdf:RDF>
      <cc:Work
         rdf:about="">
        <dc:title>Avatar Users2</dc:title>
      </cc:Work>
    </rdf:RDF>
  </metadata>
  <path
     class="cls-11"
     d="m 144.26662,275.03794 a 37.480325,37.480325 0 0 0 -8.33209,-0.94147 37.969895,37.969895 0 0 0 -10.6105,1.50636 v 0 a 38.788982,38.788982 0 0 0 -23.1604,18.35886 v 0 a 38.676004,38.676004 0 0 0 63.90768,43.07273 v 0 0 a 38.337071,38.337071 0 0 0 8.52039,-23.32047 c 0,-0.29185 0,-0.59313 0,-0.94148 a 38.741909,38.741909 0 0 0 -30.32508,-37.73453 z m 13.88683,51.84732 c 0,0 0,0 0,0 a 26.417933,26.417933 0 0 1 -15.06367,11.24129 v 0 a 26.446178,26.446178 0 0 1 -7.10818,0.94147 26.361444,26.361444 0 1 1 8.68043,-51.15062 v 0 a 26.361444,26.361444 0 0 1 17.60569,24.82683 26.672133,26.672133 0 0 1 -0.39542,4.53793 26.04134,26.04134 0 0 1 -3.70001,9.52779 z"
     id="path5732"
     style="fill:#f6c752;stroke-width:0.94148" />
  <path
     class="cls-11"
     d="m 411.75054,294.51717 v 0 a 38.864301,38.864301 0 0 0 -22.90621,-18.72604 v 0 a 37.753354,37.753354 0 0 0 -11.16596,-1.66642 38.732494,38.732494 0 0 0 -38.67599,38.69484 c 0,0.13181 0,0.24478 0,0.37659 a 38.713664,38.713664 0 0 0 16.8525,31.54901 v 0 a 38.666589,38.666589 0 0 0 55.88625,-50.22798 z m -17.15376,38.43122 a 26.361444,26.361444 0 0 1 -23.60292,5.31937 v 0 a 26.361444,26.361444 0 0 1 -15.19548,-10.8741 25.994266,25.994266 0 0 1 -4.12368,-10.6858 26.304954,26.304954 0 0 1 18.00109,-28.95993 26.314369,26.314369 0 0 1 24.93982,45.19105 z"
     id="path5734"
     style="fill:#f6c752;stroke-width:0.94148" />
</svg>
